<svg version="1.1" id="Layer_1" xmlns="http://www.w3.org/2000/svg" xmlns:xlink="http://www.w3.org/1999/xlink" x="0px" y="0px"
	 width="100%" viewBox="0 0 367 113" enable-background="new 0 0 367 113" xml:space="preserve">
<path fill="#FAF7E4" opacity="1.000000" stroke="none" 
	d="
M368.000000,15.999998 
	C368.000000,19.030594 368.000000,22.061186 367.759888,25.702778 
	C367.343048,26.843796 367.166321,27.373816 366.934326,28.048752 
	C366.879028,28.193666 366.776733,28.486517 366.527527,28.215094 
	C363.964539,24.231100 361.650726,20.518530 359.316467,16.819901 
	C359.295959,16.833839 359.247284,16.828112 359.251953,16.473892 
	C358.242584,14.295670 357.228546,12.471667 356.166626,10.460398 
	C356.008911,10.025627 355.831177,9.844864 355.518616,9.421358 
	C355.072723,8.380631 354.693848,7.649388 354.251648,6.624168 
	C353.818756,5.878072 353.449188,5.425953 352.993591,4.723425 
	C352.600128,4.339152 352.292725,4.205290 351.523499,3.989284 
	C245.036987,3.880546 139.012283,3.852230 32.987595,3.834024 
	C28.994747,3.833338 25.001883,3.930718 20.676151,3.898338 
	C19.893696,3.876370 19.444113,3.938466 18.661522,4.029781 
	C17.784584,5.197219 17.240654,6.335437 16.379049,7.632427 
	C14.569710,10.821594 13.078048,13.851988 11.384565,17.082758 
	C10.897758,17.772503 10.612768,18.261871 10.052376,18.873837 
	C9.131182,20.304455 8.485390,21.612474 7.601543,23.155481 
	C5.942016,25.675240 4.520543,27.960011 3.071873,29.761471 
	C3.029784,19.852106 3.014892,10.426053 3.000000,1.000000 
	C12.687562,1.000000 22.375124,1.000000 32.829208,1.292367 
	C35.072544,1.722142 36.549335,1.979542 38.026173,1.979827 
	C135.953857,1.998767 233.881546,2.002083 331.809204,1.955459 
	C333.539642,1.954636 335.269745,1.332320 337.000000,1.000000 
	C343.354401,1.000000 349.708801,1.000000 356.490234,1.356768 
	C357.644653,4.603568 358.372009,7.493601 359.099365,10.383633 
	C362.587799,9.133360 363.006287,12.863242 365.061340,14.366686 
	C366.076782,15.138506 367.038391,15.569251 368.000000,15.999998 
z"/>
<path fill="#FFEFA4" opacity="1.000000" stroke="none" 
	d="
M352.000000,114.000000 
	C240.977997,114.000000 129.955978,114.000000 18.434086,113.782173 
	C17.934204,113.564346 17.901798,113.124939 18.377333,113.075821 
	C128.436127,113.022003 238.019394,113.016556 347.602661,113.020561 
	C349.097931,113.020615 350.593201,113.139954 352.072876,113.403435 
	C352.057251,113.603249 352.000000,114.000000 352.000000,114.000000 
z"/>
<path fill="#F3F6FD" opacity="1.000000" stroke="none" 
	d="
M336.531342,1.000000 
	C335.269745,1.332320 333.539642,1.954636 331.809204,1.955459 
	C233.881546,2.002083 135.953857,1.998767 38.026173,1.979827 
	C36.549335,1.979542 35.072544,1.722142 33.297867,1.292367 
	C134.020889,1.000000 235.041794,1.000000 336.531342,1.000000 
z"/>
<path fill="#E7E6DC" opacity="1.000000" stroke="none" 
	d="
M2.500000,1.000000 
	C3.014892,10.426053 3.029784,19.852106 3.090973,30.206913 
	C3.101718,40.134182 2.960237,49.133869 3.059419,58.130901 
	C3.165658,67.767952 3.498489,77.402512 3.506783,87.379578 
	C3.187428,96.480667 3.093714,105.240334 3.000000,114.000000 
	C0.535207,114.622803 1.006770,112.850601 1.005459,111.519302 
	C0.995488,101.396286 1.000000,91.273239 1.000000,81.150208 
	C1.000000,55.759647 0.984962,30.369053 1.042579,4.978623 
	C1.045590,3.651698 1.666667,2.326175 2.500000,1.000000 
z"/>
<path fill="#F5F7F0" opacity="1.000000" stroke="none" 
	d="
M3.466117,114.000000 
	C3.093714,105.240334 3.187428,96.480667 3.662570,87.595779 
	C4.388280,87.823502 4.732563,88.176453 5.127556,88.809135 
	C5.374944,89.405418 5.571621,89.721970 5.805935,90.397484 
	C8.881042,96.173340 11.918511,101.590225 14.964920,107.358063 
	C15.949840,109.514328 16.925819,111.319633 17.901798,113.124939 
	C17.901798,113.124939 17.934204,113.564346 17.967102,113.782173 
	C13.310744,114.000000 8.621489,114.000000 3.466117,114.000000 
z"/>
<path fill="#F0D150" opacity="1.000000" stroke="none" 
	d="
M359.336945,16.805958 
	C361.650726,20.518530 363.964539,24.231100 366.535400,28.634472 
	C366.853271,47.211006 366.887360,65.096939 367.018799,82.982147 
	C367.031128,84.657082 367.658295,86.327492 368.000000,88.000000 
	C368.000000,88.444443 368.000000,88.888893 367.643097,89.619186 
	C365.209747,92.290443 363.133331,94.675842 361.027893,96.665909 
	C361.275116,94.989723 361.199646,93.467094 361.886230,92.468376 
	C365.542023,87.150497 366.018372,81.166977 366.003693,75.014717 
	C365.974701,62.859833 366.526306,50.671059 365.756714,38.565029 
	C365.405518,33.040752 362.461761,27.687832 360.749176,22.239813 
	C360.188690,20.456743 359.802704,18.618805 359.336945,16.805958 
z"/>
<path fill="#F3F8FC" opacity="1.000000" stroke="none" 
	d="
M365.007477,14.025615 
	C363.006287,12.863242 362.587799,9.133360 359.099365,10.383633 
	C358.372009,7.493601 357.644653,4.603568 356.958649,1.356768 
	C360.030609,1.000000 363.061188,1.000000 366.654785,1.219777 
	C367.405121,1.728846 367.665833,1.915661 368.000000,2.000000 
	C368.000000,5.030593 368.000000,8.061187 367.685760,11.576696 
	C366.583527,12.716282 365.795502,13.370951 365.007477,14.025615 
z"/>
<path fill="#F3F8FA" opacity="1.000000" stroke="none" 
	d="
M368.000000,101.000000 
	C368.000000,105.252258 368.000000,109.504524 368.000000,114.000000 
	C364.321564,114.000000 360.639984,114.000000 356.477478,113.625000 
	C356.619568,110.492668 357.242493,107.735321 357.917480,104.687546 
	C358.291687,103.923431 358.613922,103.449738 359.282959,102.986664 
	C360.092407,102.985367 360.555054,102.973450 361.013153,103.367477 
	C360.887238,105.747444 360.765869,107.721466 360.644501,109.695480 
	C361.087830,109.858154 361.531189,110.020821 361.974518,110.183487 
	C362.978912,108.042717 363.832977,105.811386 365.046844,103.796844 
	C365.721161,102.677734 366.995880,101.920387 368.000000,101.000000 
z"/>
<path fill="#F0E7C0" opacity="1.000000" stroke="none" 
	d="
M368.000000,87.531342 
	C367.658295,86.327492 367.031128,84.657082 367.018799,82.982147 
	C366.887360,65.096939 366.853271,47.211006 366.784607,28.905895 
	C366.776733,28.486517 366.879028,28.193666 367.185974,28.083809 
	C367.661957,27.982635 367.830963,27.991318 368.000000,28.000000 
	C368.000000,47.687561 368.000000,67.375122 368.000000,87.531342 
z"/>
<path fill="#EFFBF0" opacity="1.000000" stroke="none" 
	d="
M368.000000,100.600006 
	C366.995880,101.920387 365.721161,102.677734 365.046844,103.796844 
	C363.832977,105.811386 362.978912,108.042717 361.974518,110.183487 
	C361.531189,110.020821 361.087830,109.858154 360.644501,109.695480 
	C360.765869,107.721466 360.887238,105.747444 361.265625,103.155952 
	C362.662537,100.685585 363.802368,98.832680 365.325073,96.987480 
	C366.471954,96.996788 367.235992,96.998398 368.000000,97.000000 
	C368.000000,98.066673 368.000000,99.133339 368.000000,100.600006 
z"/>
<path fill="#FDF6D7" opacity="1.000000" stroke="none" 
	d="
M364.942200,96.979782 
	C363.802368,98.832680 362.662537,100.685585 361.270203,102.750008 
	C360.555054,102.973450 360.092407,102.985367 359.312622,102.642532 
	C359.349792,101.204536 359.704132,100.121284 360.036469,99.015152 
	C360.014465,98.992279 360.041229,99.048500 360.303345,98.893951 
	C360.731506,98.168503 360.897552,97.597603 361.045898,97.026947 
	C361.028198,97.027199 361.056885,97.061241 361.056885,97.061241 
	C363.133331,94.675842 365.209747,92.290443 367.643097,89.952522 
	C368.000000,90.750000 368.000000,91.500000 367.642639,92.659180 
	C366.504242,94.372162 365.723206,95.675972 364.942200,96.979782 
z"/>
<path fill="#FDF6D7" opacity="1.000000" stroke="none" 
	d="
M357.865479,104.977982 
	C357.242493,107.735321 356.619568,110.492668 355.998291,113.625000 
	C354.933319,114.000000 353.866669,114.000000 352.399994,114.000000 
	C352.000000,114.000000 352.057251,113.603249 352.353699,113.229836 
	C353.120789,111.919098 353.591461,110.981781 354.039001,110.018990 
	C354.015808,109.993515 354.049500,110.050095 354.342529,109.905579 
	C355.712189,108.166710 356.788818,106.572350 357.865479,104.977982 
z"/>
<path fill="#F3F8FA" opacity="1.000000" stroke="none" 
	d="
M365.325073,96.987488 
	C365.723206,95.675972 366.504242,94.372162 367.642639,93.034180 
	C368.000000,94.066673 368.000000,95.133339 368.000000,96.600006 
	C367.235992,96.998398 366.471954,96.996788 365.325073,96.987488 
z"/>
<path fill="#E0E6E5" opacity="1.000000" stroke="none" 
	d="
M365.061340,14.366690 
	C365.795502,13.370951 366.583527,12.716282 367.685760,12.030807 
	C368.000000,13.066669 368.000000,14.133339 368.000000,15.600002 
	C367.038391,15.569251 366.076782,15.138506 365.061340,14.366690 
z"/>
<path fill="#E0E6E5" opacity="1.000000" stroke="none" 
	d="
M368.000000,27.666668 
	C367.830963,27.991318 367.661957,27.982635 367.241272,27.938894 
	C367.166321,27.373816 367.343048,26.843796 367.759888,26.156887 
	C368.000000,26.444445 368.000000,26.888889 368.000000,27.666668 
z"/>
<path fill="#E0E6E5" opacity="1.000000" stroke="none" 
	d="
M368.000000,1.500000 
	C367.665833,1.915661 367.405121,1.728846 367.108887,1.219777 
	C367.333344,1.000000 367.666656,1.000000 368.000000,1.500000 
z"/>
<path fill="#FAD02D" opacity="1.000000" stroke="none" 
	d="
M359.316467,16.819897 
	C359.802704,18.618805 360.188690,20.456743 360.749176,22.239813 
	C362.461761,27.687832 365.405518,33.040752 365.756714,38.565029 
	C366.526306,50.671059 365.974701,62.859833 366.003693,75.014717 
	C366.018372,81.166977 365.542023,87.150497 361.886230,92.468376 
	C361.199646,93.467094 361.275116,94.989723 361.027893,96.665909 
	C361.056885,97.061241 361.028198,97.027199 360.777100,97.177933 
	C360.364410,97.901947 360.202820,98.475220 360.041229,99.048500 
	C360.041229,99.048500 360.014465,98.992279 359.685059,99.048767 
	C357.586914,102.753532 355.818207,106.401810 354.049500,110.050095 
	C354.049500,110.050095 354.015808,109.993515 353.650940,110.066513 
	C350.814270,110.762177 348.342987,111.927330 345.870697,111.929459 
	C240.686768,112.020126 135.502731,112.011993 30.318722,111.993484 
	C24.853350,111.992523 18.770105,113.662338 15.434885,107.087090 
	C15.391459,107.001480 15.120656,107.031212 14.955980,107.007111 
	C11.918511,101.590225 8.881042,96.173340 6.208348,90.373306 
	C10.141253,88.166824 10.454280,85.016640 9.762771,81.379082 
	C8.200795,83.762520 6.638820,86.145958 5.076844,88.529396 
	C4.732563,88.176453 4.388280,87.823502 3.888211,87.254356 
	C3.498489,77.402512 3.165658,67.767952 3.059419,58.130901 
	C2.960237,49.133869 3.101718,40.134182 3.118170,30.690224 
	C4.520543,27.960011 5.942016,25.675240 7.962941,23.156790 
	C10.185139,21.970158 13.265309,21.633934 10.327778,18.751240 
	C10.612768,18.261871 10.897758,17.772503 11.754251,17.010273 
	C13.782745,13.649491 15.239736,10.561573 16.696726,7.473655 
	C17.240654,6.335437 17.784584,5.197219 18.804962,4.261099 
	C19.857285,4.302932 20.433155,4.142665 21.009027,3.982400 
	C25.001883,3.930718 28.994747,3.833338 32.987595,3.834024 
	C139.012283,3.852230 245.036987,3.880546 351.639526,4.209308 
	C352.442291,4.782146 352.729706,4.936264 353.079651,4.973832 
	C353.449188,5.425953 353.818756,5.878072 353.997498,6.778759 
	C354.399628,8.061837 354.992584,8.896345 355.585571,9.730848 
	C355.831177,9.844864 356.008911,10.025627 356.101501,10.863789 
	C357.138550,13.245667 358.192932,15.036890 359.247284,16.828114 
	C359.247284,16.828112 359.295959,16.833839 359.316467,16.819897 
z"/>
<path fill="#F0D150" opacity="1.000000" stroke="none" 
	d="
M16.379049,7.632428 
	C15.239736,10.561573 13.782745,13.649491 11.956070,16.809895 
	C13.078048,13.851988 14.569710,10.821594 16.379049,7.632428 
z"/>
<path fill="#F0D150" opacity="1.000000" stroke="none" 
	d="
M10.052376,18.873837 
	C13.265309,21.633934 10.185139,21.970158 8.200995,22.921803 
	C8.485390,21.612474 9.131182,20.304455 10.052376,18.873837 
z"/>
<path fill="#F0D150" opacity="1.000000" stroke="none" 
	d="
M359.251953,16.473892 
	C358.192932,15.036890 357.138550,13.245667 356.149353,11.051055 
	C357.228546,12.471667 358.242584,14.295670 359.251953,16.473892 
z"/>
<path fill="#F0D150" opacity="1.000000" stroke="none" 
	d="
M355.518585,9.421364 
	C354.992584,8.896345 354.399628,8.061837 354.060791,7.072737 
	C354.693848,7.649388 355.072723,8.380631 355.518585,9.421364 
z"/>
<path fill="#F0D150" opacity="1.000000" stroke="none" 
	d="
M20.676151,3.898337 
	C20.433155,4.142665 19.857285,4.302932 19.137972,4.231879 
	C19.444113,3.938466 19.893696,3.876370 20.676151,3.898337 
z"/>
<path fill="#F0D150" opacity="1.000000" stroke="none" 
	d="
M352.993591,4.723423 
	C352.729706,4.936264 352.442291,4.782146 352.101349,4.291451 
	C352.292725,4.205290 352.600128,4.339152 352.993591,4.723423 
z"/>
<path fill="#F0D150" opacity="1.000000" stroke="none" 
	d="
M14.964920,107.358063 
	C15.120656,107.031212 15.391459,107.001480 15.434885,107.087090 
	C18.770105,113.662338 24.853350,111.992523 30.318722,111.993484 
	C135.502731,112.011993 240.686768,112.020126 345.870697,111.929459 
	C348.342987,111.927330 350.814270,110.762177 353.674103,110.091980 
	C353.591461,110.981781 353.120789,111.919098 352.369293,113.030022 
	C350.593201,113.139954 349.097931,113.020615 347.602661,113.020561 
	C238.019394,113.016556 128.436127,113.022003 18.377335,113.075821 
	C16.925819,111.319633 15.949840,109.514328 14.964920,107.358063 
z"/>
<path fill="#F6D41F" opacity="1.000000" stroke="none" 
	d="
M5.127556,88.809135 
	C6.638820,86.145958 8.200795,83.762520 9.762771,81.379082 
	C10.454280,85.016640 10.141253,88.166824 6.170711,90.014336 
	C5.571621,89.721970 5.374944,89.405418 5.127556,88.809135 
z"/>
<path fill="#F0D150" opacity="1.000000" stroke="none" 
	d="
M354.342529,109.905579 
	C355.818207,106.401810 357.586914,102.753532 359.707062,99.071640 
	C359.704132,100.121284 359.349792,101.204536 358.965820,102.631912 
	C358.613922,103.449738 358.291687,103.923431 357.917480,104.687553 
	C356.788818,106.572350 355.712189,108.166710 354.342529,109.905579 
z"/>
<path fill="#F0D150" opacity="1.000000" stroke="none" 
	d="
M360.303345,98.893951 
	C360.202820,98.475220 360.364410,97.901947 360.794800,97.177689 
	C360.897552,97.597603 360.731506,98.168503 360.303345,98.893951 
z"/>
</svg>