<svg version="1.1" id="Layer_1" xmlns="http://www.w3.org/2000/svg" xmlns:xlink="http://www.w3.org/1999/xlink" x="0px" y="0px"
	 width="100%" viewBox="0 0 523 157" enable-background="new 0 0 523 157" xml:space="preserve">
<path fill="#919191" opacity="1.000000" stroke="none" 
	d="
M524.000000,13.000000 
	C524.000000,56.687561 524.000000,100.375122 523.531372,144.531128 
	C379.235687,144.999344 235.408722,144.987793 91.581772,145.061798 
	C87.841621,145.063721 85.067635,144.162720 82.348671,141.412201 
	C62.784851,121.621315 43.048180,102.001320 23.381689,82.311798 
	C22.365688,81.294609 21.489986,80.137283 20.492828,78.980057 
	C21.266417,78.024635 21.727871,77.338089 22.301346,76.763321 
	C42.424458,56.594814 62.591167,36.469593 82.647270,16.234734 
	C85.080391,13.779938 87.608063,12.938040 91.019203,12.939806 
	C235.346115,13.014564 379.673065,13.001878 524.000000,13.000000 
z"/>
<path fill="#F4F8F9" opacity="1.000000" stroke="none" 
	d="
M524.000000,12.520824 
	C379.673065,13.001878 235.346115,13.014564 91.019203,12.939806 
	C87.608063,12.938040 85.080391,13.779938 82.647270,16.234734 
	C62.591167,36.469593 42.424458,56.594814 22.301346,76.763321 
	C21.727871,77.338089 21.266417,78.024635 20.492828,78.980057 
	C21.489986,80.137283 22.365688,81.294609 23.381689,82.311798 
	C43.048180,102.001320 62.784851,121.621315 82.348671,141.412201 
	C85.067635,144.162720 87.841621,145.063721 91.581772,145.061798 
	C235.408722,144.987793 379.235687,144.999344 523.531372,144.999786 
	C524.000000,149.331711 524.000000,153.663437 524.000000,157.996368 
	C349.733398,157.997574 175.466766,157.997574 1.100077,157.997574 
	C1.100077,105.753098 1.100077,53.505939 1.100077,1.129391 
	C175.333252,1.129391 349.666626,1.129391 524.000000,1.129391 
	C524.000000,4.711037 524.000000,8.376343 524.000000,12.520824 
z"/>
</svg>