<svg version="1.1" id="Layer_1" xmlns="http://www.w3.org/2000/svg" xmlns:xlink="http://www.w3.org/1999/xlink" x="0px" y="0px"
	 width="100%" viewBox="0 0 746 312" enable-background="new 0 0 746 312" xml:space="preserve">
<path fill="#FAD02D" opacity="1.000000" stroke="none" 
	d="
M747.000000,157.000000 
	C747.000000,157.750000 747.000000,158.500000 746.735962,159.819580 
	C739.453186,173.213257 732.387146,186.011749 725.424927,198.866425 
	C707.757812,231.486099 690.276611,264.207855 672.343018,296.680054 
	C669.751770,301.371887 668.449158,307.583313 660.003052,307.571503 
	C471.917206,307.308258 283.830933,307.352051 95.744759,307.335480 
	C92.412926,307.335175 89.054970,307.553467 85.758980,307.202393 
	C83.763390,306.989868 81.863785,305.876068 79.922211,305.116364 
	C79.923370,305.065552 79.821907,305.071899 79.775024,304.708984 
	C79.381882,303.411530 79.139740,302.421295 78.673744,301.550903 
	C71.372795,287.913574 64.149689,274.232910 56.685871,260.684998 
	C50.758556,249.926056 44.528553,239.333847 38.431206,228.644806 
	C38.429470,228.622009 38.424156,228.576599 38.404076,228.312439 
	C38.051022,227.651459 37.718044,227.254669 37.337181,226.569138 
	C36.975163,225.801682 36.661026,225.322952 36.331230,224.534027 
	C36.247044,223.815628 36.178516,223.407410 36.305038,222.743622 
	C34.118954,218.228470 31.737825,213.968887 29.247597,209.389954 
	C28.267725,207.867615 27.396954,206.664627 26.493826,205.443604 
	C26.461470,205.425583 26.436533,205.355835 26.528839,204.982529 
	C25.090897,200.998413 23.828266,197.239426 21.939240,193.827240 
	C20.610857,191.427765 18.430180,189.500153 16.618160,187.342194 
	C16.606253,187.322556 16.577412,187.286819 16.668777,186.904907 
	C14.865974,183.327637 12.971805,180.132263 10.954537,176.695831 
	C10.708648,176.115448 10.585856,175.776123 10.532072,175.108475 
	C10.046664,174.198029 9.492250,173.615921 8.842024,172.886566 
	C8.746212,172.739334 8.620657,172.411224 8.666333,172.087357 
	C8.193856,171.147873 7.675704,170.532242 7.038929,169.669830 
	C6.776209,169.087646 6.632111,168.752258 6.551542,168.098450 
	C6.121202,167.162033 5.627332,166.544052 5.012655,165.848114 
	C4.891849,165.770187 4.619432,165.678207 4.561218,165.336777 
	C3.917132,163.742310 3.331259,162.489273 2.800953,160.838760 
	C3.981709,157.033981 5.106899,153.626663 6.507370,150.031403 
	C8.044312,147.106125 9.305975,144.368820 10.637758,141.450226 
	C10.707881,141.268936 10.901204,140.931656 11.235939,140.846893 
	C12.268897,139.085281 12.967121,137.408463 13.734578,135.544189 
	C13.803811,135.356750 13.995543,135.006088 14.323521,134.902466 
	C15.263246,133.397369 15.874991,131.995911 16.571091,130.334320 
	C16.807730,129.743484 16.960014,129.412766 17.441301,128.981659 
	C20.005859,124.460968 22.241415,120.040634 24.606133,115.369957 
	C24.879894,114.772919 25.024492,114.426216 25.365643,113.965836 
	C25.795126,113.653976 25.991693,113.424644 26.448936,113.008270 
	C28.931692,108.203842 31.117405,103.555290 33.281052,98.679665 
	C33.258984,98.452599 33.111504,98.020813 33.202194,97.913101 
	C33.292881,97.805382 33.272614,97.524490 33.584969,97.351257 
	C34.796089,95.556686 35.694851,93.935341 36.730713,92.266464 
	C36.867817,92.218933 37.111511,92.061325 37.410854,91.945084 
	C37.970318,91.079056 38.230438,90.329277 38.592171,89.325905 
	C38.848404,88.742546 39.003029,88.412781 39.454464,87.955330 
	C40.037697,87.076424 40.324120,86.325188 40.671455,85.410812 
	C40.732365,85.247658 40.927010,84.958809 41.247337,84.870071 
	C41.866413,84.040695 42.165165,83.300064 42.544395,82.301102 
	C42.772129,81.714149 42.919380,81.385529 43.396248,80.968567 
	C45.494270,77.596977 47.262676,74.313713 49.297951,70.821930 
	C55.350063,64.101082 57.806305,55.886395 61.077248,48.071449 
	C61.072262,48.052021 61.098331,48.071255 61.415279,47.963978 
	C63.856598,43.573177 65.980972,39.289654 68.190018,34.675446 
	C69.022316,32.694786 69.769943,31.044807 70.669983,29.323198 
	C70.822388,29.251568 71.092972,29.050999 71.399216,28.936047 
	C71.983223,28.063528 72.260994,27.305962 72.592026,26.381340 
	C72.645279,26.214283 72.828728,25.915413 73.045181,25.816261 
	C73.397293,25.157499 73.532959,24.597891 73.721535,23.828501 
	C73.913383,23.209656 74.052330,22.800591 74.406174,22.324526 
	C74.621071,22.257526 74.985565,21.993298 75.317795,21.899584 
	C77.334595,18.448647 79.019157,15.091422 80.788712,11.417088 
	C80.988052,10.457829 81.102425,9.815678 81.167038,9.152178 
	C81.117287,9.130829 81.170830,9.224950 81.471207,9.217857 
	C82.170181,9.166089 82.568787,9.121414 83.192474,9.257475 
	C84.286102,9.297734 85.154663,9.157258 86.349327,9.002058 
	C87.110558,8.994253 87.545677,9.001173 88.326370,9.234994 
	C90.485435,9.607892 92.298904,9.881440 94.112411,9.881703 
	C225.090042,9.900706 356.067657,9.895506 487.045288,9.898192 
	C544.202148,9.899364 601.359436,10.018089 658.515137,9.766846 
	C664.566406,9.740246 666.815796,12.477457 669.117981,17.228863 
	C671.816589,22.798460 675.530334,27.876198 678.863892,33.500271 
	C679.952454,35.220310 680.980896,36.607361 682.208252,38.085724 
	C682.407227,38.177036 682.842834,38.220257 682.861694,38.178970 
	C682.880615,38.137680 682.792664,38.160229 682.794434,38.513786 
	C683.086731,39.764832 683.377136,40.662323 683.555664,41.888260 
	C684.065674,43.032497 684.687561,43.848293 685.344360,44.680321 
	C685.379211,44.696560 685.391907,44.772442 685.335327,45.060764 
	C685.872925,46.179619 686.467102,47.010151 687.246094,48.072525 
	C687.910522,48.635887 688.390198,48.967407 688.885132,49.491302 
	C688.956787,49.944229 689.082581,50.165184 689.262329,50.513699 
	C689.246765,50.680851 689.465210,50.938690 689.211670,51.043285 
	C689.667236,52.407101 690.376343,53.666325 691.199829,54.916828 
	C691.314148,54.908108 691.526489,54.821495 691.477295,55.118263 
	C691.496338,55.810535 691.564575,56.206043 691.633301,56.837742 
	C691.782593,57.405716 692.038269,57.555393 692.585815,57.759281 
	C693.063538,58.519024 693.356201,59.042450 693.552490,59.919521 
	C694.302307,61.517815 695.148499,62.762463 695.997314,64.003708 
	C696.000000,64.000305 695.992676,64.003410 695.995850,64.384567 
	C697.995300,68.182579 699.991577,71.599434 702.177246,75.232300 
	C702.622070,75.960258 702.877563,76.472214 702.972168,77.170013 
	C703.225769,77.887840 703.640320,78.419823 704.029846,78.970490 
	C704.004883,78.989182 704.052917,78.959106 704.059082,79.255951 
	C704.407166,80.014748 704.749084,80.476715 705.080566,80.944893 
	C705.070190,80.951111 705.091064,80.917267 705.086060,81.293449 
	C707.190247,85.323921 709.299561,88.978210 711.387817,92.678848 
	C711.366699,92.725189 711.457703,92.679459 711.382935,93.034393 
	C712.230957,94.570015 713.153748,95.750694 714.242493,96.990005 
	C714.408447,97.048630 714.754089,97.115425 714.752930,97.435890 
	C714.818298,98.178352 714.884827,98.600349 714.759827,99.260544 
	C715.392639,100.659142 716.216980,101.819557 717.130615,103.148575 
	C717.219788,103.317184 717.348816,103.676262 717.281250,104.053391 
	C718.491150,106.605347 719.768616,108.780174 721.030701,110.966675 
	C721.015320,110.978340 721.053162,110.980705 721.043640,111.279716 
	C721.393066,112.019218 721.752014,112.459709 722.090454,112.944054 
	C722.069885,112.987907 722.136658,112.917343 722.135010,113.288345 
	C724.659241,118.759705 727.013062,123.955597 729.772888,128.926025 
	C731.544495,132.116669 733.914246,134.975189 736.115234,138.167664 
	C736.214600,138.352737 736.362854,138.745834 736.315918,139.049866 
	C736.594360,139.832336 736.919800,140.310776 737.263855,140.789978 
	C737.282410,140.790710 737.318359,140.802979 737.260376,141.177917 
	C738.559143,144.665649 739.607361,147.968246 741.369263,150.831696 
	C742.802429,153.160828 745.090820,154.963745 747.000000,157.000000 
z"/>
<path fill="#F5F8F5" opacity="1.000000" stroke="none" 
	d="
M4.619432,165.678192 
	C4.619432,165.678207 4.891849,165.770187 4.977304,166.181946 
	C5.123933,167.036819 5.185109,167.479935 5.031976,168.144592 
	C5.612753,169.539062 6.407839,170.711975 7.434270,171.987518 
	C7.983963,172.197174 8.302311,172.304199 8.620659,172.411224 
	C8.620657,172.411224 8.746212,172.739334 8.822013,173.211731 
	C8.945003,174.115707 8.992190,174.547272 8.868908,175.229736 
	C10.391292,178.369446 8.740847,183.336914 14.166994,184.271255 
	C15.081572,185.451782 15.829492,186.369293 16.577412,187.286819 
	C16.577412,187.286819 16.606253,187.322556 16.633877,187.694046 
	C17.499311,190.249985 18.337124,192.434448 19.259029,194.891907 
	C19.614824,195.420609 19.886524,195.676331 20.387060,196.156540 
	C21.196989,197.746155 21.778084,199.111267 22.334242,200.825317 
	C22.890858,201.772400 23.472408,202.370575 24.263939,203.167419 
	C25.128124,204.029358 25.782331,204.692596 26.436535,205.355835 
	C26.436533,205.355835 26.461470,205.425583 26.507816,205.780579 
	C26.741913,207.025909 26.929665,207.916275 27.089867,209.216095 
	C27.498383,213.399475 27.649357,217.362244 32.772636,218.366882 
	C32.951466,219.011215 33.031418,219.385483 33.188057,220.005432 
	C33.490387,220.503296 33.716030,220.755478 34.141472,221.213058 
	C34.559937,221.940796 34.778599,222.463150 34.840324,223.201920 
	C35.237885,223.893631 35.792389,224.368927 36.346893,224.844223 
	C36.661026,225.322952 36.975163,225.801682 37.116173,226.751801 
	C37.436752,227.674316 37.930450,228.125458 38.424152,228.576599 
	C38.424156,228.576599 38.429470,228.622009 38.334190,229.027939 
	C43.642006,240.253937 48.958405,251.118454 54.475849,261.879883 
	C58.822243,270.357239 63.191830,278.837952 67.974052,287.071564 
	C71.576157,293.273315 75.848114,299.086029 79.821907,305.071899 
	C79.821907,305.071899 79.923370,305.065552 79.955154,305.491089 
	C81.097435,306.944305 82.076744,308.617523 83.343781,308.875031 
	C86.738731,309.565063 90.256882,309.931671 93.726204,309.932495 
	C280.887665,309.977997 468.049103,309.972443 655.210571,309.972015 
	C658.377075,309.972015 661.596130,310.315155 664.690796,309.843384 
	C666.616089,309.549896 669.094299,308.481628 670.036255,306.962463 
	C672.896667,302.349121 675.101440,297.332153 677.613953,292.499664 
	C684.019897,280.178528 690.357117,267.820099 696.915039,255.580078 
	C700.666077,248.579147 704.964783,241.871414 708.708740,234.867004 
	C713.065796,226.715485 716.956665,218.315414 721.283569,210.147003 
	C727.331909,198.728867 733.519409,187.382309 739.811218,176.096420 
	C741.952576,172.255508 744.589478,168.690872 747.000000,165.000000 
	C747.000000,214.312759 747.000000,263.625519 747.000000,312.937439 
	C498.333313,312.936584 249.666656,312.936584 1.000000,312.936584 
	C1.000000,264.226776 1.000000,215.580368 1.453139,166.448944 
	C2.810663,165.868698 3.715047,165.773453 4.619432,165.678192 
z"/>
<path fill="#F4F8F9" opacity="1.000000" stroke="none" 
	d="
M40.927010,84.958809 
	C40.927010,84.958809 40.732365,85.247658 40.423222,85.464203 
	C39.807533,85.824303 39.500984,85.967842 38.850655,86.146622 
	C38.081394,87.478516 37.655922,88.775169 37.176193,90.401932 
	C37.118458,91.175133 37.114986,91.618225 37.111511,92.061325 
	C37.111511,92.061325 36.867817,92.218933 36.302193,92.222473 
	C31.923504,92.600914 33.329567,95.402878 33.272614,97.524490 
	C33.272614,97.524490 33.292881,97.805382 32.852749,97.910019 
	C31.534580,98.289551 30.656544,98.564445 29.778507,98.839340 
	C30.236572,99.575752 30.694637,100.312172 31.073608,101.365616 
	C30.349552,102.797798 29.704590,103.912949 28.718082,105.114594 
	C27.237818,107.779739 26.099096,110.358383 24.974689,112.950279 
	C24.989004,112.963524 24.946264,112.971199 24.605770,113.053734 
	C23.227074,115.166954 22.188875,117.197632 21.107426,119.563187 
	C20.099089,121.628525 19.133999,123.358978 17.825760,125.160873 
	C15.635514,129.159378 13.788422,133.086472 11.886694,137.289734 
	C11.528310,138.031525 11.224560,138.497116 10.601207,139.023499 
	C8.771105,139.373993 7.260606,139.663712 5.980052,139.909317 
	C6.392518,141.717224 6.778584,143.409409 7.150120,145.093903 
	C7.135589,145.086182 7.120872,145.104599 6.776776,145.178284 
	C5.637871,147.182159 4.843063,149.112350 4.026207,151.022186 
	C4.004160,151.001831 4.052034,151.044571 3.746956,151.095917 
	C2.627918,151.764847 1.813958,152.382431 0.999999,153.000000 
	C1.000000,102.425079 1.000000,51.850166 1.000000,1.000000 
	C30.686995,1.000000 60.374840,1.000000 90.663994,1.342502 
	C93.509590,2.800988 95.753883,3.916974 97.555656,5.034000 
	C92.833504,5.386027 88.521317,5.535598 84.295280,6.218386 
	C83.122490,6.407870 82.205292,8.179299 81.170830,9.224950 
	C81.170830,9.224950 81.117287,9.130829 80.776993,9.125454 
	C74.797585,11.869852 74.908966,17.325768 74.191277,22.391525 
	C74.052330,22.800591 73.913383,23.209656 73.472275,24.084232 
	C73.056320,25.004967 72.942528,25.460190 72.828735,25.915413 
	C72.828728,25.915413 72.645279,26.214283 72.318138,26.528000 
	C71.691658,27.578144 71.392311,28.314571 71.092972,29.050999 
	C71.092972,29.050999 70.822388,29.251568 70.407486,29.126802 
	C67.781296,27.010204 67.575981,28.652966 66.868767,30.443571 
	C65.541542,33.804012 64.343742,37.453484 62.091270,40.145237 
	C59.728405,42.968910 58.619980,45.664360 59.060295,49.370667 
	C59.013180,49.571121 58.841957,49.945675 58.540279,50.068520 
	C57.838089,51.147396 57.437576,52.103424 56.976280,53.334675 
	C56.622849,54.080780 56.330208,54.551662 55.709755,55.113930 
	C55.043907,55.973133 54.705868,56.740948 54.341682,57.799759 
	C53.977493,58.781979 53.639446,59.473202 52.933659,60.211021 
	C51.781754,61.944576 50.997593,63.631542 50.140320,65.604149 
	C49.718109,66.592072 49.369011,67.294365 48.704834,67.916733 
	C47.183220,67.082367 45.976688,66.327934 44.770157,65.573502 
	C44.493362,65.870850 44.216572,66.168205 43.939777,66.465561 
	C45.003105,68.001152 46.066433,69.536736 47.071228,71.382530 
	C46.666569,72.455681 46.320446,73.218628 45.611923,74.053116 
	C40.822647,75.655716 41.777046,79.744293 40.988541,83.343094 
	C40.945881,84.096855 40.936447,84.527832 40.927010,84.958809 
M8.291169,133.878876 
	C7.961845,134.431076 7.632522,134.983292 7.303197,135.535492 
	C7.662825,135.696350 8.022451,135.857224 8.382081,136.018082 
	C8.470939,135.428726 8.559795,134.839371 8.291169,133.878876 
z"/>
<path fill="#F4F8F9" opacity="1.000000" stroke="none" 
	d="
M714.754089,97.115433 
	C714.754089,97.115425 714.408447,97.048630 714.253113,96.690186 
	C714.044189,95.935020 713.990601,95.538300 713.863159,94.918015 
	C713.643677,94.410522 713.440613,94.176323 712.998413,93.782852 
	C712.363586,93.275719 711.910645,92.977600 711.457703,92.679474 
	C711.457703,92.679459 711.366699,92.725189 711.375000,92.312408 
	C709.607666,88.224548 707.832031,84.549469 706.042847,80.497055 
	C704.613281,77.786964 703.197266,75.454208 701.594543,72.900177 
	C701.181702,72.147995 700.955627,71.617104 700.930786,70.874809 
	C700.073853,69.119942 699.015686,67.576477 697.962280,66.023514 
	C697.967041,66.014015 697.957458,66.033310 697.975037,65.632339 
	C697.648438,60.636387 696.183350,56.737663 691.526489,54.821495 
	C691.526489,54.821495 691.314148,54.908108 691.234985,54.597038 
	C691.110168,53.859100 691.064514,53.432236 691.216003,52.746826 
	C690.701355,51.774372 689.989624,51.060463 689.277893,50.346550 
	C689.082581,50.165184 688.956787,49.944229 688.919067,49.078999 
	C686.889343,45.036297 684.841003,41.598267 682.792664,38.160233 
	C682.792664,38.160229 682.880615,38.137680 682.845459,37.954582 
	C682.727173,37.478607 682.574829,37.227852 682.162598,36.752541 
	C681.626587,35.690826 681.281128,34.895786 680.957520,33.689888 
	C680.551331,31.393036 680.689453,29.030075 679.582397,27.716246 
	C676.939392,24.579504 676.188538,21.553873 678.625977,16.886473 
	C675.510681,21.963379 673.980347,17.595448 671.920776,17.050594 
	C671.921265,17.027567 671.946716,17.063637 671.837524,16.848969 
	C671.542542,16.365124 671.307495,16.149618 670.914795,15.739491 
	C670.713013,15.142988 670.619751,14.794778 670.746704,14.105566 
	C671.308960,12.508140 671.651001,11.251717 672.062622,9.958601 
	C672.132202,9.921909 672.154053,9.756164 672.154053,9.756164 
	C672.154053,9.756164 672.004822,10.006903 671.642944,9.952538 
	C669.853149,9.600111 668.425354,9.302050 666.998779,9.002012 
	C667.000000,9.000037 666.996155,9.003087 666.917480,8.680114 
	C665.559265,7.573080 664.279602,6.789019 662.972412,5.647367 
	C661.946228,4.518760 660.947571,3.747744 659.955139,2.647350 
	C659.974304,1.878648 659.987122,1.439324 660.000000,1.000000 
	C688.945435,1.000000 717.890930,1.000000 747.000000,1.000000 
	C747.000000,49.354103 747.000000,97.708397 746.548767,146.542450 
	C744.886169,147.135712 743.674866,147.249191 742.245544,147.125671 
	C741.743469,146.315445 741.459351,145.742233 741.518372,145.106201 
	C742.261353,144.788437 742.661133,144.533493 743.060974,144.278564 
	C740.002991,140.204346 736.945068,136.130142 733.694336,131.844666 
	C733.282349,131.109497 733.063049,130.585602 733.052979,129.816757 
	C730.797913,125.424210 728.333679,121.276588 725.854126,117.125305 
	C725.838867,117.121635 725.804016,117.121521 725.846924,116.682556 
	C725.307495,113.447838 725.231079,110.403137 724.010010,107.921638 
	C722.600586,105.057327 720.253296,102.629997 718.169312,100.133026 
	C717.207092,98.980087 715.903137,98.112427 714.754089,97.115433 
M713.604919,85.118698 
	C713.843262,85.138870 714.081604,85.159042 714.319946,85.179214 
	C714.323730,85.044136 714.327454,84.909065 714.331177,84.773987 
	C714.091858,84.782722 713.852539,84.791451 713.604919,85.118698 
z"/>
<path fill="#F5F7FB" opacity="1.000000" stroke="none" 
	d="
M97.998169,5.032959 
	C95.753883,3.916974 93.509590,2.800988 91.132652,1.342502 
	C278.687561,1.000000 466.375122,1.000000 654.474121,1.342427 
	C654.591187,2.801617 654.296814,3.918380 653.533508,5.035345 
	C468.042450,5.034685 283.020294,5.033822 97.998169,5.032959 
z"/>
<path fill="#F9F3DA" opacity="1.000000" stroke="none" 
	d="
M747.000000,164.583328 
	C744.589478,168.690872 741.952576,172.255508 739.811218,176.096420 
	C733.519409,187.382309 727.331909,198.728867 721.283569,210.147003 
	C716.956665,218.315414 713.065796,226.715485 708.708740,234.867004 
	C704.964783,241.871414 700.666077,248.579147 696.915039,255.580078 
	C690.357117,267.820099 684.019897,280.178528 677.613953,292.499664 
	C675.101440,297.332153 672.896667,302.349121 670.036255,306.962463 
	C669.094299,308.481628 666.616089,309.549896 664.690796,309.843384 
	C661.596130,310.315155 658.377075,309.972015 655.210571,309.972015 
	C468.049103,309.972443 280.887665,309.977997 93.726204,309.932495 
	C90.256882,309.931671 86.738731,309.565063 83.343781,308.875031 
	C82.076744,308.617523 81.097435,306.944305 79.953995,305.541901 
	C81.863785,305.876068 83.763390,306.989868 85.758980,307.202393 
	C89.054970,307.553467 92.412926,307.335175 95.744759,307.335480 
	C283.830933,307.352051 471.917206,307.308258 660.003052,307.571503 
	C668.449158,307.583313 669.751770,301.371887 672.343018,296.680054 
	C690.276611,264.207855 707.757812,231.486099 725.424927,198.866425 
	C732.387146,186.011749 739.453186,173.213257 746.735962,160.194580 
	C747.000000,161.388885 747.000000,162.777786 747.000000,164.583328 
z"/>
<path fill="#F0DC74" opacity="1.000000" stroke="none" 
	d="
M741.175232,145.169037 
	C741.459351,145.742233 741.743469,146.315445 742.338684,147.463959 
	C744.099854,150.359497 745.549927,152.679749 747.000000,155.000000 
	C747.000000,155.444443 747.000000,155.888901 747.000000,156.666672 
	C745.090820,154.963745 742.802429,153.160828 741.369263,150.831696 
	C739.607361,147.968246 738.559143,144.665649 737.541077,141.304718 
	C738.978210,142.427414 740.076721,143.798233 741.175232,145.169037 
z"/>
<path fill="#F4F8F9" opacity="1.000000" stroke="none" 
	d="
M654.002441,5.035142 
	C654.296814,3.918380 654.591187,2.801617 654.942749,1.342427 
	C655.444458,1.000000 655.888916,1.000000 656.770752,1.310054 
	C658.121643,2.072327 659.035278,2.524546 659.948853,2.976746 
	C660.947571,3.747744 661.946228,4.518760 662.597900,5.667509 
	C659.501404,5.708541 656.751953,5.371841 654.002441,5.035142 
z"/>
<path fill="#F9F3DA" opacity="1.000000" stroke="none" 
	d="
M747.000000,154.555832 
	C745.549927,152.679749 744.099854,150.359497 742.556641,147.700958 
	C743.674866,147.249191 744.886169,147.135712 746.548767,147.011108 
	C747.000000,149.370560 747.000000,151.741104 747.000000,154.555832 
z"/>
<path fill="#F0DC74" opacity="1.000000" stroke="none" 
	d="
M6.232089,150.219360 
	C5.106899,153.626663 3.981709,157.033981 2.509489,160.803467 
	C1.774973,161.110443 1.387486,161.055222 1.000000,161.000000 
	C1.000000,159.933334 1.000000,158.866653 1.249323,157.175201 
	C2.349774,154.715134 3.200903,152.879852 4.052032,151.044571 
	C4.052034,151.044571 4.004160,151.001831 4.266359,150.910828 
	C4.929379,150.474228 5.330199,150.128632 5.856716,149.891602 
	C5.982412,150.000198 6.232089,150.219360 6.232089,150.219360 
z"/>
<path fill="#F9F3DA" opacity="1.000000" stroke="none" 
	d="
M1.000000,161.416656 
	C1.387486,161.055222 1.774973,161.110443 2.453923,161.200958 
	C3.331259,162.489273 3.917132,163.742310 4.561218,165.336761 
	C3.715047,165.773453 2.810663,165.868698 1.453139,165.981964 
	C1.000000,164.611115 1.000000,163.222214 1.000000,161.416656 
z"/>
<path fill="#F9F3DA" opacity="1.000000" stroke="none" 
	d="
M3.746954,151.095917 
	C3.200903,152.879852 2.349774,154.715134 1.249323,156.775208 
	C1.000000,155.933334 1.000000,154.866653 0.999999,153.399994 
	C1.813958,152.382431 2.627918,151.764847 3.746954,151.095917 
z"/>
<path fill="#F9F3DA" opacity="1.000000" stroke="none" 
	d="
M659.955139,2.647368 
	C659.035278,2.524546 658.121643,2.072327 657.104004,1.310054 
	C657.750000,1.000000 658.500000,1.000000 659.625000,1.000000 
	C659.987122,1.439324 659.974304,1.878648 659.955139,2.647368 
z"/>
<path fill="#F9F3DA" opacity="1.000000" stroke="none" 
	d="
M653.533508,5.035344 
	C656.751953,5.371841 659.501404,5.708541 662.625488,6.025100 
	C664.279602,6.789019 665.559265,7.573080 666.510010,8.592613 
	C662.874695,8.623942 659.568359,8.241695 656.261963,8.241147 
	C470.648773,8.210357 285.035583,8.206632 99.422401,8.242601 
	C95.608482,8.243340 91.794662,8.741821 87.980797,9.008094 
	C87.545677,9.001173 87.110558,8.994253 85.970718,8.913914 
	C84.499794,8.919243 83.733597,8.997991 82.967392,9.076739 
	C82.568787,9.121414 82.170181,9.166089 81.471207,9.217857 
	C82.205292,8.179299 83.122490,6.407870 84.295280,6.218386 
	C88.521317,5.535598 92.833504,5.386027 97.555656,5.034000 
	C283.020294,5.033822 468.042450,5.034685 653.533508,5.035344 
z"/>
<path fill="#F0DC74" opacity="1.000000" stroke="none" 
	d="
M88.326370,9.234994 
	C91.794662,8.741821 95.608482,8.243340 99.422401,8.242601 
	C285.035583,8.206632 470.648773,8.210357 656.261963,8.241147 
	C659.568359,8.241695 662.874695,8.623942 666.588623,8.915586 
	C666.996155,9.003087 667.000000,9.000037 667.105103,9.320661 
	C668.315674,11.243043 669.421021,12.844803 670.526367,14.446566 
	C670.619751,14.794778 670.713013,15.142988 670.993164,15.975611 
	C671.355591,16.762794 671.611145,16.963999 671.946716,17.063637 
	C671.946716,17.063637 671.921265,17.027567 671.986755,17.402128 
	C674.470093,22.771255 676.887939,27.765821 679.180298,32.862076 
	C679.054749,32.963768 678.803772,33.167263 678.803772,33.167271 
	C675.530334,27.876198 671.816589,22.798460 669.117981,17.228863 
	C666.815796,12.477457 664.566406,9.740246 658.515137,9.766846 
	C601.359436,10.018089 544.202148,9.899364 487.045288,9.898192 
	C356.067657,9.895506 225.090042,9.900706 94.112411,9.881703 
	C92.298904,9.881440 90.485435,9.607892 88.326370,9.234994 
z"/>
<path fill="#F9F3DA" opacity="1.000000" stroke="none" 
	d="
M79.775024,304.708984 
	C75.848114,299.086029 71.576157,293.273315 67.974052,287.071564 
	C63.191830,278.837952 58.822243,270.357239 54.475849,261.879883 
	C48.958405,251.118454 43.642006,240.253937 38.335930,229.050751 
	C44.528553,239.333847 50.758556,249.926056 56.685871,260.684998 
	C64.149689,274.232910 71.372795,287.913574 78.673744,301.550903 
	C79.139740,302.421295 79.381882,303.411530 79.775024,304.708984 
z"/>
<path fill="#F9F3DA" opacity="1.000000" stroke="none" 
	d="
M714.752930,97.435898 
	C715.903137,98.112427 717.207092,98.980087 718.169312,100.133026 
	C720.253296,102.629997 722.600586,105.057327 724.010010,107.921638 
	C725.231079,110.403137 725.307495,113.447838 725.599060,116.491348 
	C724.251038,115.465179 723.193848,114.191269 722.136658,112.917351 
	C722.136658,112.917343 722.069885,112.987907 722.053955,112.661331 
	C721.709656,111.883415 721.381409,111.432068 721.053162,110.980713 
	C721.053162,110.980705 721.015320,110.978340 721.047363,110.601395 
	C719.835876,108.041725 718.592346,105.859009 717.348755,103.676277 
	C717.348816,103.676262 717.219788,103.317184 717.112732,102.815628 
	C716.320923,101.216835 715.636108,100.119591 714.951355,99.022346 
	C714.884827,98.600349 714.818298,98.178352 714.752930,97.435898 
z"/>
<path fill="#F0DC74" opacity="1.000000" stroke="none" 
	d="
M53.301399,60.164429 
	C53.639446,59.473202 53.977493,58.781979 54.600925,57.625519 
	C55.270065,56.447701 55.653816,55.735123 56.037567,55.022545 
	C56.330208,54.551662 56.622849,54.080780 57.241337,53.162815 
	C57.992107,51.792381 58.417034,50.869026 58.841957,49.945675 
	C58.841957,49.945675 59.013180,49.571121 59.308350,49.235580 
	C60.096424,48.630318 60.589329,48.360596 61.082233,48.090874 
	C57.806305,55.886395 55.350063,64.101082 49.167435,70.697891 
	C48.770050,70.782387 48.509232,70.534805 48.599075,70.223671 
	C48.799252,69.273911 48.909584,68.635284 49.019913,67.996658 
	C49.369011,67.294365 49.718109,66.592072 50.409763,65.395294 
	C51.602013,63.322006 52.451706,61.743217 53.301399,60.164429 
z"/>
<path fill="#F0DC74" opacity="1.000000" stroke="none" 
	d="
M722.135010,113.288361 
	C723.193848,114.191269 724.251038,115.465179 725.556152,116.930305 
	C725.804016,117.121521 725.838867,117.121635 725.920898,117.471916 
	C728.283203,121.902031 730.563477,125.981865 732.843750,130.061707 
	C733.063049,130.585602 733.282349,131.109497 733.763184,132.189880 
	C734.688477,134.491760 735.352112,136.237167 736.015808,137.982574 
	C733.914246,134.975189 731.544495,132.116669 729.772888,128.926025 
	C727.013062,123.955597 724.659241,118.759705 722.135010,113.288361 
z"/>
<path fill="#F9F3DA" opacity="1.000000" stroke="none" 
	d="
M61.077248,48.071445 
	C60.589329,48.360596 60.096424,48.630318 59.355469,49.035126 
	C58.619980,45.664360 59.728405,42.968910 62.091270,40.145237 
	C64.343742,37.453484 65.541542,33.804012 66.868767,30.443571 
	C67.575981,28.652966 67.781296,27.010204 70.255081,29.198433 
	C69.769943,31.044807 69.022316,32.694786 67.910011,34.878201 
	C65.396332,39.631508 63.247330,43.851379 61.098328,48.071251 
	C61.098331,48.071255 61.072262,48.052021 61.077248,48.071445 
z"/>
<path fill="#F0DC74" opacity="1.000000" stroke="none" 
	d="
M19.174934,194.618896 
	C18.337124,192.434448 17.499311,190.249985 16.645786,187.713684 
	C18.430180,189.500153 20.610857,191.427765 21.939240,193.827240 
	C23.828266,197.239426 25.090897,200.998413 26.528843,204.982529 
	C25.782331,204.692596 25.128124,204.029358 24.201908,202.861053 
	C23.406326,201.729462 22.882755,201.102921 22.359180,200.476395 
	C21.778084,199.111267 21.196989,197.746155 20.273109,195.903961 
	C19.678528,195.157547 19.426731,194.888229 19.174934,194.618896 
z"/>
<path fill="#F9F3DA" opacity="1.000000" stroke="none" 
	d="
M736.115234,138.167664 
	C735.352112,136.237167 734.688477,134.491760 733.955933,132.401138 
	C736.945068,136.130142 740.002991,140.204346 743.060974,144.278564 
	C742.661133,144.533493 742.261353,144.788437 741.518372,145.106201 
	C740.076721,143.798233 738.978210,142.427414 737.598999,140.929779 
	C737.318359,140.802979 737.282410,140.790710 737.247559,140.502716 
	C736.929443,139.725098 736.646118,139.235474 736.362793,138.745850 
	C736.362854,138.745834 736.214600,138.352737 736.115234,138.167664 
z"/>
<path fill="#F9F3DA" opacity="1.000000" stroke="none" 
	d="
M74.406174,22.324526 
	C74.908966,17.325768 74.797585,11.869852 80.826752,9.146803 
	C81.102425,9.815678 80.988052,10.457829 80.494904,11.574125 
	C78.405937,15.363281 76.695755,18.678289 74.985565,21.993298 
	C74.985565,21.993298 74.621071,22.257526 74.406174,22.324526 
z"/>
<path fill="#F0DC74" opacity="1.000000" stroke="none" 
	d="
M29.059624,105.028091 
	C29.704590,103.912949 30.349552,102.797798 31.329563,101.201355 
	C32.210777,100.115616 32.756943,99.511169 33.303116,98.906723 
	C31.117405,103.555290 28.931692,108.203842 26.349762,112.905228 
	C25.953545,112.958061 25.756561,112.757309 25.864086,112.427979 
	C27.000948,109.741791 28.030285,107.384941 29.059624,105.028091 
z"/>
<path fill="#F0DC74" opacity="1.000000" stroke="none" 
	d="
M18.168911,125.089439 
	C19.133999,123.358978 20.099089,121.628525 21.359257,119.370804 
	C22.595217,117.769127 23.536095,116.694710 24.476973,115.620300 
	C22.241415,120.040634 20.005859,124.460968 17.454748,128.634644 
	C17.482431,127.288460 17.825672,126.188950 18.168911,125.089439 
z"/>
<path fill="#F0DC74" opacity="1.000000" stroke="none" 
	d="
M33.111370,219.759735 
	C33.031418,219.385483 32.951466,219.011215 32.726574,218.030579 
	C31.350409,214.976791 30.119177,212.529388 29.004761,209.988358 
	C29.121576,209.894714 29.356691,209.709290 29.356693,209.709290 
	C31.737825,213.968887 34.118954,218.228470 36.026657,222.747986 
	C35.367912,223.000443 35.182590,222.992966 34.997265,222.985504 
	C34.778599,222.463150 34.559937,221.940796 34.067375,220.967682 
	C33.566113,220.264511 33.338741,220.012131 33.111370,219.759735 
z"/>
<path fill="#F0DC74" opacity="1.000000" stroke="none" 
	d="
M61.415276,47.963974 
	C63.247330,43.851379 65.396332,39.631508 67.825333,35.208885 
	C65.980972,39.289654 63.856598,43.573177 61.415276,47.963974 
z"/>
<path fill="#F9F3DA" opacity="1.000000" stroke="none" 
	d="
M691.477295,55.118263 
	C696.183350,56.737663 697.648438,60.636387 697.749634,65.455414 
	C697.002075,65.120758 696.497375,64.562080 695.992676,64.003403 
	C695.992676,64.003410 696.000000,64.000305 695.975830,63.674519 
	C695.184021,62.087776 694.416443,60.826817 693.648865,59.565865 
	C693.356201,59.042450 693.063538,58.519024 692.498047,57.575493 
	C692.076111,56.919067 691.878662,56.734455 691.632812,56.601547 
	C691.564575,56.206043 691.496338,55.810535 691.477295,55.118263 
z"/>
<path fill="#F9F3DA" opacity="1.000000" stroke="none" 
	d="
M17.825760,125.160873 
	C17.825672,126.188950 17.482431,127.288460 17.125746,128.735001 
	C16.960014,129.412766 16.807730,129.743484 16.304527,130.512451 
	C15.300922,132.302475 14.648235,133.654282 13.995544,135.006088 
	C13.995543,135.006088 13.803811,135.356750 13.511028,135.693741 
	C12.792605,136.358337 12.366967,136.685944 11.941328,137.013550 
	C13.788422,133.086472 15.635514,129.159378 17.825760,125.160873 
z"/>
<path fill="#F9F3DA" opacity="1.000000" stroke="none" 
	d="
M682.794434,38.513794 
	C684.841003,41.598267 686.889343,45.036297 688.903809,48.886627 
	C688.390198,48.967407 687.910522,48.635887 687.254028,47.756836 
	C686.515442,46.397022 685.953674,45.584740 685.391907,44.772446 
	C685.391907,44.772442 685.379211,44.696560 685.318848,44.376904 
	C684.728210,43.224758 684.197937,42.392265 683.667603,41.559792 
	C683.377136,40.662323 683.086731,39.764832 682.794434,38.513794 
z"/>
<path fill="#F0DC74" opacity="1.000000" stroke="none" 
	d="
M75.317795,21.899586 
	C76.695755,18.678289 78.405937,15.363281 80.409927,11.891235 
	C79.019157,15.091422 77.334595,18.448647 75.317795,21.899586 
z"/>
<path fill="#F0DC74" opacity="1.000000" stroke="none" 
	d="
M706.056396,80.874405 
	C707.832031,84.549469 709.607666,88.224548 711.396118,92.266068 
	C709.299561,88.978210 707.190247,85.323921 705.327393,81.284821 
	C705.573792,80.900002 706.056335,80.874413 706.056396,80.874405 
z"/>
<path fill="#F0DC74" opacity="1.000000" stroke="none" 
	d="
M16.668777,186.904907 
	C15.829492,186.369293 15.081572,185.451782 14.111018,183.926270 
	C12.951468,181.191147 12.014551,179.064026 11.077635,176.936890 
	C12.971805,180.132263 14.865974,183.327637 16.668777,186.904907 
z"/>
<path fill="#F0DC74" opacity="1.000000" stroke="none" 
	d="
M45.974327,73.981575 
	C46.320446,73.218628 46.666569,72.455681 47.312500,71.324646 
	C47.919788,70.834061 48.218761,70.693474 48.509232,70.534805 
	C48.509232,70.534805 48.770050,70.782387 48.900566,70.906418 
	C47.262676,74.313713 45.494270,77.596977 43.425667,80.614807 
	C44.075085,78.226776 45.024708,76.104172 45.974327,73.981575 
z"/>
<path fill="#F9F3DA" opacity="1.000000" stroke="none" 
	d="
M10.954536,176.695831 
	C12.014551,179.064026 12.951468,181.191147 13.944359,183.663269 
	C8.740847,183.336914 10.391292,178.369446 9.110374,175.294922 
	C9.827306,175.243073 10.140890,175.352264 10.463064,175.436813 
	C10.585856,175.776123 10.708648,176.115448 10.954536,176.695831 
z"/>
<path fill="#F9F3DA" opacity="1.000000" stroke="none" 
	d="
M45.611923,74.053116 
	C45.024708,76.104172 44.075085,78.226776 43.096046,80.703140 
	C42.919380,81.385529 42.772129,81.714149 42.304600,82.376305 
	C41.663471,82.813324 41.342617,82.916824 41.021759,83.020325 
	C41.777046,79.744293 40.822647,75.655716 45.611923,74.053116 
z"/>
<path fill="#F9F3DA" opacity="1.000000" stroke="none" 
	d="
M7.164651,145.101608 
	C6.778584,143.409409 6.392518,141.717224 5.980052,139.909317 
	C7.260606,139.663712 8.771105,139.373993 10.603018,139.352310 
	C10.916690,140.057434 10.908947,140.494553 10.901205,140.931656 
	C10.901204,140.931656 10.707881,141.268936 10.371773,141.599152 
	C9.078660,142.986786 8.121655,144.044189 7.164651,145.101608 
z"/>
<path fill="#F0DC74" opacity="1.000000" stroke="none" 
	d="
M695.995850,64.384560 
	C696.497375,64.562080 697.002075,65.120758 697.732056,65.856377 
	C697.957458,66.033310 697.967041,66.014015 698.025757,66.347809 
	C698.966064,68.149811 699.847778,69.618019 700.729492,71.086227 
	C700.955627,71.617104 701.181702,72.147995 701.638245,73.215286 
	C701.908386,74.173225 701.948120,74.594765 701.987915,75.016296 
	C699.991577,71.599434 697.995300,68.182579 695.995850,64.384560 
z"/>
<path fill="#F0DC74" opacity="1.000000" stroke="none" 
	d="
M7.150120,145.093903 
	C8.121655,144.044189 9.078660,142.986786 10.301651,141.780441 
	C9.305975,144.368820 8.044312,147.106125 6.507370,150.031403 
	C6.232089,150.219360 5.982412,150.000198 5.964583,149.559433 
	C6.338128,147.780640 6.729501,146.442627 7.120873,145.104599 
	C7.120872,145.104599 7.135589,145.086182 7.150120,145.093903 
z"/>
<path fill="#F0DC74" opacity="1.000000" stroke="none" 
	d="
M717.281250,104.053406 
	C718.592346,105.859009 719.835876,108.041725 721.062744,110.589722 
	C719.768616,108.780174 718.491150,106.605347 717.281250,104.053406 
z"/>
<path fill="#F9F3DA" opacity="1.000000" stroke="none" 
	d="
M702.177185,75.232307 
	C701.948120,74.594765 701.908386,74.173225 701.824951,73.436569 
	C703.197266,75.454208 704.613281,77.786964 706.042847,80.497070 
	C706.056335,80.874413 705.573792,80.900002 705.332397,80.908630 
	C705.091064,80.917267 705.070190,80.951111 705.052002,80.652390 
	C704.706848,79.888809 704.379883,79.423950 704.052917,78.959099 
	C704.052917,78.959106 704.004883,78.989182 704.019409,78.686371 
	C703.733704,77.917091 703.433411,77.450623 703.133118,76.984161 
	C702.877563,76.472214 702.622070,75.960258 702.177185,75.232307 
z"/>
<path fill="#F9F3DA" opacity="1.000000" stroke="none" 
	d="
M24.606136,115.369957 
	C23.536095,116.694710 22.595217,117.769127 21.402508,119.035927 
	C22.188875,117.197632 23.227074,115.166954 24.645069,113.334259 
	C25.072939,113.714676 25.121016,113.897102 25.169090,114.079521 
	C25.024492,114.426216 24.879894,114.772919 24.606136,115.369957 
z"/>
<path fill="#F9F3DA" opacity="1.000000" stroke="none" 
	d="
M33.584969,97.351257 
	C33.329567,95.402878 31.923504,92.600914 36.165092,92.270004 
	C35.694851,93.935341 34.796089,95.556686 33.584969,97.351257 
z"/>
<path fill="#F9F3DA" opacity="1.000000" stroke="none" 
	d="
M37.230450,90.071831 
	C37.655922,88.775169 38.081394,87.478516 38.829117,86.475357 
	C39.153465,87.206902 39.155563,87.644958 39.157658,88.083008 
	C39.003029,88.412781 38.848404,88.742546 38.381714,89.406128 
	C37.806984,89.893700 37.527248,90.004333 37.230450,90.071831 
z"/>
<path fill="#F0DC74" opacity="1.000000" stroke="none" 
	d="
M680.935669,34.100746 
	C681.281128,34.895786 681.626587,35.690826 682.074951,36.995678 
	C682.121704,37.668465 682.065552,37.831444 682.009338,37.994415 
	C680.980896,36.607361 679.952454,35.220310 678.863892,33.500263 
	C678.803772,33.167263 679.054749,32.963768 679.379639,33.035061 
	C680.114929,33.437820 680.525330,33.769283 680.935669,34.100746 
z"/>
<path fill="#F9F3DA" opacity="1.000000" stroke="none" 
	d="
M7.202926,171.884888 
	C6.407839,170.711975 5.612753,169.539062 5.243764,168.214279 
	C5.930282,168.208954 6.202999,168.327118 6.488013,168.416885 
	C6.632111,168.752258 6.776209,169.087646 7.007404,169.997833 
	C7.130643,171.010056 7.166785,171.447464 7.202926,171.884888 
z"/>
<path fill="#F9F3DA" opacity="1.000000" stroke="none" 
	d="
M33.281048,98.679657 
	C32.756943,99.511169 32.210777,100.115616 31.408655,100.884323 
	C30.694637,100.312172 30.236572,99.575752 29.778507,98.839340 
	C30.656544,98.564445 31.534580,98.289551 32.762062,98.017731 
	C33.111504,98.020813 33.258984,98.452599 33.281048,98.679657 
z"/>
<path fill="#F0DC74" opacity="1.000000" stroke="none" 
	d="
M714.759827,99.260544 
	C715.636108,100.119591 716.320923,101.216835 717.023560,102.647018 
	C716.216980,101.819557 715.392639,100.659142 714.759827,99.260544 
z"/>
<path fill="#F0DC74" opacity="1.000000" stroke="none" 
	d="
M691.018921,53.005379 
	C691.064514,53.432236 691.110168,53.859100 691.120605,54.605759 
	C690.376343,53.666325 689.667236,52.407101 689.362244,51.333443 
	C690.183899,52.014465 690.601379,52.509926 691.018921,53.005379 
z"/>
<path fill="#F0DC74" opacity="1.000000" stroke="none" 
	d="
M693.552490,59.919510 
	C694.416443,60.826817 695.184021,62.087776 695.973145,63.677921 
	C695.148499,62.762463 694.302307,61.517815 693.552490,59.919510 
z"/>
<path fill="#F0DC74" opacity="1.000000" stroke="none" 
	d="
M11.235939,140.846893 
	C10.908947,140.494553 10.916690,140.057434 10.922621,139.291534 
	C11.224560,138.497116 11.528310,138.031525 11.886694,137.289734 
	C12.366967,136.685944 12.792605,136.358337 13.441795,135.881180 
	C12.967121,137.408463 12.268897,139.085281 11.235939,140.846893 
z"/>
<path fill="#F0DC74" opacity="1.000000" stroke="none" 
	d="
M14.323524,134.902466 
	C14.648235,133.654282 15.300922,132.302475 16.220175,130.772552 
	C15.874991,131.995911 15.263246,133.397369 14.323524,134.902466 
z"/>
<path fill="#F0DC74" opacity="1.000000" stroke="none" 
	d="
M713.936951,95.141571 
	C713.990601,95.538300 714.044189,95.935020 714.087158,96.631561 
	C713.153748,95.750694 712.230957,94.570015 711.382935,93.034409 
	C711.910645,92.977600 712.363586,93.275719 713.051575,94.015617 
	C713.420105,94.764565 713.636902,94.992630 713.936951,95.141571 
z"/>
<path fill="#F0DC74" opacity="1.000000" stroke="none" 
	d="
M27.117416,208.806625 
	C26.929665,207.916275 26.741913,207.025909 26.540173,205.798584 
	C27.396954,206.664627 28.267725,207.867615 29.247593,209.389954 
	C29.356691,209.709290 29.121576,209.894714 28.791416,209.818481 
	C28.013311,209.430374 27.565363,209.118500 27.117416,208.806625 
z"/>
<path fill="#F0DC74" opacity="1.000000" stroke="none" 
	d="
M685.335327,45.060768 
	C685.953674,45.584740 686.515442,46.397022 687.069275,47.524994 
	C686.467102,47.010151 685.872925,46.179619 685.335327,45.060768 
z"/>
<path fill="#F9F3DA" opacity="1.000000" stroke="none" 
	d="
M691.216003,52.746834 
	C690.601379,52.509926 690.183899,52.014465 689.615845,51.228848 
	C689.465210,50.938690 689.246765,50.680851 689.262329,50.513702 
	C689.989624,51.060463 690.701355,51.774372 691.216003,52.746834 
z"/>
<path fill="#F0DC74" opacity="1.000000" stroke="none" 
	d="
M683.555725,41.888237 
	C684.197937,42.392265 684.728210,43.224758 685.283936,44.360664 
	C684.687561,43.848293 684.065674,43.032497 683.555725,41.888237 
z"/>
<path fill="#F0DC74" opacity="1.000000" stroke="none" 
	d="
M7.434272,171.987518 
	C7.166785,171.447464 7.130643,171.010056 7.126025,170.244629 
	C7.675704,170.532242 8.193856,171.147873 8.666334,172.087357 
	C8.302311,172.304199 7.983963,172.197174 7.434272,171.987518 
z"/>
<path fill="#F0DC74" opacity="1.000000" stroke="none" 
	d="
M10.532071,175.108475 
	C10.140890,175.352264 9.827306,175.243073 9.280846,175.044037 
	C8.992190,174.547272 8.945003,174.115707 8.917825,173.358963 
	C9.492250,173.615921 10.046664,174.198029 10.532071,175.108475 
z"/>
<path fill="#F0DC74" opacity="1.000000" stroke="none" 
	d="
M6.551543,168.098450 
	C6.202999,168.327118 5.930282,168.208954 5.458073,167.992722 
	C5.185109,167.479935 5.123933,167.036819 5.098110,166.259888 
	C5.627332,166.544052 6.121202,167.162033 6.551543,168.098450 
z"/>
<path fill="#F0DC74" opacity="1.000000" stroke="none" 
	d="
M71.399216,28.936047 
	C71.392311,28.314571 71.691658,27.578144 72.264877,26.695057 
	C72.260994,27.305962 71.983223,28.063528 71.399216,28.936047 
z"/>
<path fill="#F9F3DA" opacity="1.000000" stroke="none" 
	d="
M34.840324,223.201920 
	C35.182590,222.992966 35.367912,223.000443 35.831612,223.003540 
	C36.178516,223.407410 36.247044,223.815628 36.331234,224.534027 
	C35.792389,224.368927 35.237885,223.893631 34.840324,223.201920 
z"/>
<path fill="#F0DC74" opacity="1.000000" stroke="none" 
	d="
M702.972168,77.170013 
	C703.433411,77.450623 703.733704,77.917091 704.044434,78.667679 
	C703.640320,78.419823 703.225769,77.887840 702.972168,77.170013 
z"/>
<path fill="#F0DC74" opacity="1.000000" stroke="none" 
	d="
M40.988541,83.343102 
	C41.342617,82.916824 41.663471,82.813324 42.224121,82.634628 
	C42.165165,83.300064 41.866413,84.040695 41.247337,84.870071 
	C40.936447,84.527832 40.945881,84.096855 40.988541,83.343102 
z"/>
<path fill="#F0DC74" opacity="1.000000" stroke="none" 
	d="
M39.454468,87.955330 
	C39.155563,87.644958 39.153465,87.206902 39.172901,86.440117 
	C39.500984,85.967842 39.807533,85.824303 40.362312,85.627357 
	C40.324120,86.325188 40.037697,87.076424 39.454468,87.955330 
z"/>
<path fill="#F9F3DA" opacity="1.000000" stroke="none" 
	d="
M38.404076,228.312439 
	C37.930450,228.125458 37.436752,227.674316 37.164062,227.040527 
	C37.718044,227.254669 38.051022,227.651459 38.404076,228.312439 
z"/>
<path fill="#F0DC74" opacity="1.000000" stroke="none" 
	d="
M37.176193,90.401932 
	C37.527248,90.004333 37.806984,89.893700 38.280106,89.659714 
	C38.230438,90.329277 37.970318,91.079056 37.410854,91.945084 
	C37.114986,91.618225 37.118458,91.175133 37.176193,90.401932 
z"/>
<path fill="#F0DC74" opacity="1.000000" stroke="none" 
	d="
M83.192474,9.257475 
	C83.733597,8.997991 84.499794,8.919243 85.644608,8.928638 
	C85.154663,9.157258 84.286102,9.297734 83.192474,9.257475 
z"/>
<path fill="#F0DC74" opacity="1.000000" stroke="none" 
	d="
M736.315857,139.049866 
	C736.646118,139.235474 736.929443,139.725098 737.229004,140.501968 
	C736.919800,140.310776 736.594360,139.832336 736.315857,139.049866 
z"/>
<path fill="#F0DC74" opacity="1.000000" stroke="none" 
	d="
M704.059082,79.255936 
	C704.379883,79.423950 704.706848,79.888809 705.062378,80.646172 
	C704.749084,80.476715 704.407166,80.014748 704.059082,79.255936 
z"/>
<path fill="#F0DC74" opacity="1.000000" stroke="none" 
	d="
M721.043640,111.279724 
	C721.381409,111.432068 721.709656,111.883415 722.074463,112.617477 
	C721.752014,112.459709 721.393066,112.019218 721.043640,111.279724 
z"/>
<path fill="#F0DC74" opacity="1.000000" stroke="none" 
	d="
M73.045181,25.816261 
	C72.942528,25.460190 73.056320,25.004967 73.419373,24.294014 
	C73.532959,24.597891 73.397293,25.157499 73.045181,25.816261 
z"/>
<path fill="#F9F3DA" opacity="1.000000" stroke="none" 
	d="
M682.208252,38.085728 
	C682.065552,37.831444 682.121704,37.668465 682.265503,37.262352 
	C682.574829,37.227852 682.727173,37.478607 682.826538,37.995869 
	C682.842834,38.220257 682.407227,38.177036 682.208252,38.085728 
z"/>
<path fill="#F0DC74" opacity="1.000000" stroke="none" 
	d="
M691.633301,56.837746 
	C691.878662,56.734455 692.076111,56.919067 692.312927,57.339172 
	C692.038269,57.555393 691.782593,57.405716 691.633301,56.837746 
z"/>
<path fill="#F0DC74" opacity="1.000000" stroke="none" 
	d="
M25.365641,113.965836 
	C25.121016,113.897102 25.072939,113.714676 24.985565,113.251724 
	C24.946264,112.971199 24.989004,112.963524 25.176004,112.915245 
	C25.363005,112.866966 25.756561,112.757309 25.756561,112.757309 
	C25.756561,112.757309 25.953545,112.958061 26.052719,113.061096 
	C25.991693,113.424644 25.795126,113.653976 25.365641,113.965836 
z"/>
<path fill="#F9F3DA" opacity="1.000000" stroke="none" 
	d="
M27.089865,209.216095 
	C27.565363,209.118500 28.013311,209.430374 28.674603,209.912125 
	C30.119177,212.529388 31.350409,214.976791 32.627701,217.760483 
	C27.649357,217.362244 27.498383,213.399475 27.089865,209.216095 
z"/>
<path fill="#F9F3DA" opacity="1.000000" stroke="none" 
	d="
M22.334244,200.825317 
	C22.882755,201.102921 23.406326,201.729462 23.991928,202.662354 
	C23.472408,202.370575 22.890858,201.772400 22.334244,200.825317 
z"/>
<path fill="#F9F3DA" opacity="1.000000" stroke="none" 
	d="
M33.188057,220.005432 
	C33.338741,220.012131 33.566113,220.264511 33.867577,220.762299 
	C33.716030,220.755478 33.490387,220.503296 33.188057,220.005432 
z"/>
<path fill="#F9F3DA" opacity="1.000000" stroke="none" 
	d="
M19.259029,194.891907 
	C19.426731,194.888229 19.678528,195.157547 20.044273,195.679474 
	C19.886524,195.676331 19.614824,195.420609 19.259029,194.891907 
z"/>
<path fill="#F9F3DA" opacity="1.000000" stroke="none" 
	d="
M48.599075,70.223671 
	C48.218761,70.693474 47.919788,70.834061 47.371040,71.014442 
	C46.066433,69.536736 45.003105,68.001152 43.939777,66.465561 
	C44.216572,66.168205 44.493362,65.870850 44.770157,65.573502 
	C45.976688,66.327934 47.183220,67.082367 48.704834,67.916733 
	C48.909584,68.635284 48.799252,69.273911 48.599075,70.223671 
z"/>
<path fill="#F9F3DA" opacity="1.000000" stroke="none" 
	d="
M25.864086,112.427979 
	C25.756561,112.757309 25.363005,112.866966 25.161690,112.902000 
	C26.099096,110.358383 27.237818,107.779739 28.718079,105.114594 
	C28.030285,107.384941 27.000948,109.741791 25.864086,112.427979 
z"/>
<path fill="#F9F3DA" opacity="1.000000" stroke="none" 
	d="
M6.776777,145.178284 
	C6.729501,146.442627 6.338128,147.780640 5.838887,149.450836 
	C5.330199,150.128632 4.929379,150.474228 4.288406,150.931183 
	C4.843063,149.112350 5.637871,147.182159 6.776777,145.178284 
z"/>
<path fill="#F9F3DA" opacity="1.000000" stroke="none" 
	d="
M52.933659,60.211021 
	C52.451706,61.743217 51.602013,63.322006 50.482872,65.109650 
	C50.997593,63.631542 51.781754,61.944576 52.933659,60.211021 
z"/>
<path fill="#F9F3DA" opacity="1.000000" stroke="none" 
	d="
M8.469912,134.064453 
	C8.559795,134.839371 8.470939,135.428726 8.382080,136.018082 
	C8.022451,135.857224 7.662825,135.696350 7.303198,135.535492 
	C7.632522,134.983292 7.961845,134.431076 8.469912,134.064453 
z"/>
<path fill="#F9F3DA" opacity="1.000000" stroke="none" 
	d="
M58.540279,50.068520 
	C58.417034,50.869026 57.992107,51.792381 57.302124,52.887592 
	C57.437576,52.103424 57.838089,51.147396 58.540279,50.068520 
z"/>
<path fill="#F9F3DA" opacity="1.000000" stroke="none" 
	d="
M55.709759,55.113930 
	C55.653816,55.735123 55.270065,56.447701 54.627068,57.334518 
	C54.705868,56.740948 55.043907,55.973133 55.709759,55.113930 
z"/>
<path fill="#F9F3DA" opacity="1.000000" stroke="none" 
	d="
M680.957520,33.689888 
	C680.525330,33.769283 680.114929,33.437820 679.505249,32.933372 
	C676.887939,27.765821 674.470093,22.771255 671.986206,17.425156 
	C673.980347,17.595448 675.510681,21.963379 678.625977,16.886473 
	C676.188538,21.553873 676.939392,24.579504 679.582397,27.716246 
	C680.689453,29.030075 680.551331,31.393036 680.957520,33.689888 
z"/>
<path fill="#F9F3DA" opacity="1.000000" stroke="none" 
	d="
M733.052979,129.816772 
	C730.563477,125.981865 728.283203,121.902031 725.936157,117.475586 
	C728.333679,121.276588 730.797913,125.424210 733.052979,129.816772 
z"/>
<path fill="#F9F3DA" opacity="1.000000" stroke="none" 
	d="
M670.746643,14.105562 
	C669.421021,12.844803 668.315674,11.243043 667.103882,9.322636 
	C668.425354,9.302050 669.853149,9.600111 671.640503,9.949100 
	C672.000000,10.000030 671.993103,9.995308 671.993042,9.995300 
	C671.651001,11.251717 671.308960,12.508140 670.746643,14.105562 
z"/>
<path fill="#F9F3DA" opacity="1.000000" stroke="none" 
	d="
M700.930725,70.874817 
	C699.847778,69.618019 698.966064,68.149811 698.020996,66.357300 
	C699.015686,67.576477 700.073853,69.119942 700.930725,70.874817 
z"/>
<path fill="#F9F3DA" opacity="1.000000" stroke="none" 
	d="
M713.609070,84.959442 
	C713.852539,84.791451 714.091858,84.782722 714.331177,84.773987 
	C714.327454,84.909065 714.323730,85.044136 714.319946,85.179214 
	C714.081604,85.159042 713.843262,85.138870 713.609070,84.959442 
z"/>
<path fill="#F9F3DA" opacity="1.000000" stroke="none" 
	d="
M672.002441,10.003466 
	C672.004822,10.006903 672.154053,9.756164 672.154053,9.756164 
	C672.154053,9.756164 672.132202,9.921909 672.062622,9.958609 
	C671.993103,9.995308 672.000000,10.000030 672.002441,10.003466 
z"/>
<path fill="#F9F3DA" opacity="1.000000" stroke="none" 
	d="
M671.837524,16.848969 
	C671.611145,16.963999 671.355591,16.762794 671.101624,16.223904 
	C671.307495,16.149618 671.542542,16.365124 671.837524,16.848969 
z"/>
<path fill="#F9F3DA" opacity="1.000000" stroke="none" 
	d="
M713.863159,94.918015 
	C713.636902,94.992630 713.420105,94.764565 713.233398,94.224625 
	C713.440613,94.176323 713.643677,94.410522 713.863159,94.918015 
z"/>
</svg>