<svg version="1.1" id="Layer_1" xmlns="http://www.w3.org/2000/svg" xmlns:xlink="http://www.w3.org/1999/xlink" x="0px" y="0px"
	 width="100%" viewBox="0 0 160 128" enable-background="new 0 0 160 128" xml:space="preserve">
<path fill="#000000" opacity="1.000000" stroke="none" 
	d="
M51.462196,12.477795 
	C63.891079,9.778098 73.518181,14.865072 82.598953,22.387768 
	C88.786270,16.913837 95.609169,13.246030 103.887039,12.198462 
	C115.238762,10.761897 129.178787,17.422615 134.884430,27.462976 
	C142.980652,41.710133 140.684723,54.999214 129.974106,66.337578 
	C115.805916,81.336159 100.576500,95.331772 85.820915,109.776558 
	C83.844467,111.711380 82.093658,112.139397 79.852814,109.971306 
	C64.411232,95.031013 48.559399,80.498268 33.490894,65.193130 
	C15.879631,47.305302 25.936630,18.726713 49.090034,12.649005 
	C49.720940,12.483395 50.415779,12.561378 51.462196,12.477795 
M121.342461,18.098204 
	C106.142967,10.259450 93.554039,15.146604 81.538673,27.656927 
	C79.916443,25.394836 78.906624,23.349892 77.340912,21.908997 
	C68.586868,13.852812 55.464420,11.917839 44.793388,16.915989 
	C33.418686,22.243729 26.623203,33.532333 27.278931,45.750683 
	C27.751234,54.551254 32.662777,60.992275 38.559444,66.739151 
	C51.902393,79.743164 65.543968,92.441360 78.845970,105.486359 
	C81.844818,108.427269 83.659126,108.315781 86.522835,105.466721 
	C99.968681,92.089592 113.674126,78.973473 127.126038,65.602341 
	C142.039444,50.778461 139.645660,29.565041 121.342461,18.098204 
z"/>
</svg>