<svg version="1.1" id="Layer_1" xmlns="http://www.w3.org/2000/svg" xmlns:xlink="http://www.w3.org/1999/xlink" x="0px" y="0px"
	 width="100%" viewBox="0 0 148 133" enable-background="new 0 0 148 133" xml:space="preserve">
<path fill="#F5F7F9" opacity="1.000000" stroke="none" 
	d="
M1.000000,51.000000 
	C1.000000,34.000000 1.000000,17.500000 1.000000,1.000000 
	C50.333332,1.000000 99.666664,1.000000 149.000000,1.000000 
	C149.000000,45.333332 149.000000,89.666664 149.000000,134.000000 
	C99.666664,134.000000 50.333332,134.000000 1.000000,134.000000 
	C1.000000,106.500000 1.000000,79.000000 1.000000,51.000000 
M61.859459,96.762535 
	C62.165089,96.916916 62.470718,97.071297 62.724026,97.260887 
	C62.724026,97.260887 62.726196,97.323921 62.840260,97.945625 
	C63.482162,98.485085 64.124069,99.024536 64.801163,99.824112 
	C64.801163,99.824112 64.996994,99.998901 65.238289,100.597679 
	C66.392807,101.484528 67.547333,102.371376 68.767860,103.256950 
	C68.767860,103.256950 68.776993,103.191566 68.915596,103.708115 
	C69.215843,103.878494 69.516090,104.048866 69.748268,104.198280 
	C69.748268,104.198280 69.744446,104.269409 69.934357,104.919128 
	C72.008369,106.532959 73.313049,111.112846 76.820671,108.002701 
	C81.953674,103.451355 86.467293,98.201462 90.994240,93.017799 
	C90.994240,93.017799 91.249031,93.242470 91.888290,93.067802 
	C95.926849,89.043800 99.965408,85.019798 103.999390,80.999084 
	C103.999390,80.999084 103.995323,81.003166 104.599762,80.785904 
	C105.748306,79.533775 106.896843,78.281639 108.004105,76.997192 
	C108.004105,76.997192 108.017784,77.047775 108.517647,76.885345 
	C108.702148,76.600082 108.886658,76.314819 109.000977,76.013557 
	C109.000977,76.013557 109.048508,76.067635 109.631439,75.800560 
	C110.776840,74.551369 111.922249,73.302185 113.001541,72.001884 
	C113.001541,72.001884 113.053551,72.067307 113.666412,71.810387 
	C115.820023,69.579666 117.973640,67.348946 120.064598,65.020897 
	C120.064598,65.020897 120.077156,65.135963 120.593483,64.979561 
	C120.777939,64.684807 120.962395,64.390060 121.042740,64.121590 
	C121.042740,64.121590 121.144951,64.154518 121.764626,63.914993 
	C124.288391,59.693039 127.506622,55.729900 129.195953,51.196964 
	C133.097809,40.727226 129.607620,27.184975 122.135483,21.821125 
	C122.135483,21.821125 122.288345,21.672152 122.159691,21.038876 
	C120.870331,19.935349 119.580963,18.831823 118.214294,17.940554 
	C118.214294,17.940554 118.249397,17.717413 118.005440,17.098003 
	C106.770561,8.555346 90.584312,8.504930 81.000488,17.001245 
	C81.000488,17.001245 80.984245,16.968090 80.320381,17.097046 
	C78.439690,18.645269 76.558998,20.193493 74.986488,21.488016 
	C71.209206,18.973600 67.588951,16.563717 63.887821,14.036685 
	C63.887821,14.036685 63.749557,14.070588 63.282623,13.569574 
	C61.581497,12.957891 59.917908,12.196688 58.173180,11.758701 
	C46.535637,8.837292 33.176403,11.249323 26.000895,20.998589 
	C26.000895,20.998589 26.018169,21.027555 25.456890,21.251375 
	C25.225105,21.787119 24.993320,22.322865 24.861015,22.817169 
	C24.861015,22.817169 24.763348,22.771627 24.126505,22.979496 
	C22.066683,27.229658 19.053844,31.280842 18.117496,35.765568 
	C14.673727,52.259842 23.856121,62.964230 36.000751,72.000526 
	C36.000751,72.000526 35.981060,72.014488 36.234219,72.559380 
	C36.761791,72.795006 37.289368,73.030640 37.746262,73.208191 
	C37.746262,73.208191 37.730213,73.298248 37.859890,73.914352 
	C38.793198,74.707443 39.726501,75.500542 40.722065,76.294243 
	C40.722065,76.294243 40.757053,76.242737 40.901894,76.747589 
	C41.197056,76.912231 41.492218,77.076881 41.730125,77.251106 
	C41.730125,77.251106 41.729324,77.309143 41.922703,77.934029 
	C47.265762,82.979980 52.608822,88.025932 57.996655,93.004959 
	C57.996655,93.004959 57.929218,93.048950 58.183144,93.587029 
	C58.697533,93.833145 59.211922,94.079262 59.691628,94.083168 
	C59.691628,94.083168 59.686432,94.327850 59.806522,94.937317 
	C60.456867,95.379578 61.107212,95.821838 61.856373,96.286652 
	C61.856373,96.286652 61.773010,96.229424 61.859459,96.762535 
z"/>
<path fill="#F6539F" opacity="1.000000" stroke="none" 
	d="
M64.996994,99.998901 
	C64.996994,99.998901 64.801163,99.824112 64.820824,99.304001 
	C64.135719,98.297234 63.430958,97.810577 62.726196,97.323921 
	C62.726196,97.323921 62.724026,97.260887 62.710899,96.972694 
	C62.389523,96.532806 62.081264,96.381119 61.773010,96.229424 
	C61.773010,96.229424 61.856373,96.286652 61.782055,95.948837 
	C61.033970,95.183296 60.360199,94.755577 59.686432,94.327850 
	C59.686432,94.327850 59.691628,94.083168 59.652725,93.889374 
	C59.052292,93.480034 58.490757,93.264488 57.929218,93.048950 
	C57.929218,93.048950 57.996655,93.004959 57.961143,92.685440 
	C56.120369,89.521950 54.315109,86.677963 52.835564,84.347107 
	C50.932526,83.179680 49.281757,82.195709 47.660595,81.165176 
	C45.670582,79.900162 43.705299,78.596245 41.729324,77.309143 
	C41.729324,77.309143 41.730125,77.251106 41.708969,76.976425 
	C41.377560,76.548737 41.067307,76.395737 40.757053,76.242737 
	C40.757053,76.242737 40.722065,76.294243 40.767700,75.921585 
	C39.785629,74.798698 38.757919,74.048470 37.730213,73.298248 
	C37.730213,73.298248 37.746262,73.208191 37.696877,72.934937 
	C37.092014,72.445961 36.536537,72.230225 35.981060,72.014488 
	C35.981060,72.014488 36.000751,72.000526 35.967781,71.660973 
	C33.442398,68.302025 31.297699,64.885109 28.389385,62.341194 
	C21.016470,55.892059 18.482000,47.577415 19.568493,38.441967 
	C20.205212,33.088303 22.960867,27.986647 24.763348,22.771627 
	C24.763348,22.771627 24.861015,22.817169 25.103626,22.739735 
	C25.570213,22.117386 25.794191,21.572470 26.018169,21.027555 
	C26.018169,21.027555 26.000895,20.998589 26.401447,21.007753 
	C27.602068,20.876795 28.675995,21.021301 29.161461,20.554203 
	C37.544975,12.487873 47.131035,9.796529 58.367039,13.562251 
	C60.031090,14.119954 61.949062,13.920007 63.749557,14.070588 
	C63.749557,14.070588 63.887821,14.036685 63.943718,14.457121 
	C66.090401,16.961435 67.994606,19.286453 70.310997,21.078770 
	C75.066849,24.758623 79.230186,23.059258 80.984245,16.968090 
	C80.984245,16.968090 81.000488,17.001245 81.382782,17.001734 
	C83.015808,16.663473 84.312675,16.441137 85.509674,15.966791 
	C92.478424,13.205225 99.407433,10.409444 107.063278,13.502457 
	C110.756760,14.994645 114.518539,16.317749 118.249397,17.717415 
	C118.249397,17.717413 118.214294,17.940554 118.186691,18.205597 
	C119.535515,19.537811 120.911926,20.604980 122.288345,21.672152 
	C122.288345,21.672152 122.135483,21.821125 122.153488,22.141941 
	C123.314095,24.636330 124.537888,26.771580 125.585136,28.990166 
	C129.916092,38.165253 131.280182,50.286640 123.332382,58.390236 
	C122.014359,59.734104 121.845085,62.204639 121.144951,64.154518 
	C121.144951,64.154518 121.042740,64.121590 120.841385,64.192360 
	C120.452408,64.554077 120.264786,64.845024 120.077164,65.135963 
	C120.077156,65.135963 120.064598,65.020897 119.718063,65.032372 
	C115.707298,65.983276 113.155487,67.923393 113.053551,72.067307 
	C113.053551,72.067307 113.001541,72.001884 112.651619,72.012497 
	C111.217300,73.371284 110.132904,74.719460 109.048508,76.067635 
	C109.048508,76.067635 109.000977,76.013557 108.795418,76.114510 
	C108.399170,76.492905 108.208481,76.770340 108.017792,77.047775 
	C108.017784,77.047775 108.004105,76.997192 107.645172,77.001366 
	C106.189262,78.338081 105.092293,79.670624 103.995323,81.003166 
	C103.995323,81.003166 103.999390,80.999084 103.635971,80.995636 
	C98.183884,84.014801 92.849846,86.796570 91.249031,93.242470 
	C91.249031,93.242470 90.994240,93.017799 90.746933,93.077820 
	C88.982262,94.272377 87.433884,95.368095 85.954376,96.550026 
	C83.366943,98.617035 80.821838,100.737015 78.258987,102.834801 
	C78.189392,102.630447 78.119789,102.426094 78.050194,102.221741 
	C77.230598,103.726341 76.411003,105.230942 75.778595,106.391907 
	C73.306763,105.522446 71.525604,104.895927 69.744446,104.269409 
	C69.744446,104.269409 69.748268,104.198280 69.725647,103.939598 
	C69.394341,103.517799 69.085670,103.354683 68.776993,103.191566 
	C68.776993,103.191566 68.767860,103.256950 68.851212,102.905403 
	C69.154671,101.559235 69.374779,100.564613 69.634338,99.391663 
	C67.788849,99.633324 66.392921,99.816116 64.996994,99.998901 
z"/>
<path fill="#E269A1" opacity="1.000000" stroke="none" 
	d="
M24.444927,22.875561 
	C22.960867,27.986647 20.205212,33.088303 19.568493,38.441967 
	C18.482000,47.577415 21.016470,55.892059 28.389385,62.341194 
	C31.297699,64.885109 33.442398,68.302025 35.960320,71.671066 
	C23.856121,62.964230 14.673727,52.259842 18.117496,35.765568 
	C19.053844,31.280842 22.066683,27.229658 24.444927,22.875561 
z"/>
<path fill="#E269A1" opacity="1.000000" stroke="none" 
	d="
M121.454788,64.034760 
	C121.845085,62.204639 122.014359,59.734104 123.332382,58.390236 
	C131.280182,50.286640 129.916092,38.165253 125.585136,28.990166 
	C124.537888,26.771580 123.314095,24.636330 122.247116,22.090725 
	C129.607620,27.184975 133.097809,40.727226 129.195953,51.196964 
	C127.506622,55.729900 124.288391,59.693039 121.454788,64.034760 
z"/>
<path fill="#E269A1" opacity="1.000000" stroke="none" 
	d="
M118.127419,17.407709 
	C114.518539,16.317749 110.756760,14.994645 107.063278,13.502457 
	C99.407433,10.409444 92.478424,13.205225 85.509674,15.966791 
	C84.312675,16.441137 83.015808,16.663473 81.366806,16.992432 
	C90.584312,8.504930 106.770561,8.555346 118.127419,17.407709 
z"/>
<path fill="#E269A1" opacity="1.000000" stroke="none" 
	d="
M63.516090,13.820082 
	C61.949062,13.920007 60.031090,14.119954 58.367039,13.562251 
	C47.131035,9.796529 37.544975,12.487873 29.161461,20.554203 
	C28.675995,21.021301 27.602068,20.876795 26.415182,21.018047 
	C33.176403,11.249323 46.535637,8.837292 58.173180,11.758701 
	C59.917908,12.196688 61.581497,12.957891 63.516090,13.820082 
z"/>
<path fill="#E269A1" opacity="1.000000" stroke="none" 
	d="
M69.839401,104.594269 
	C71.525604,104.895927 73.306763,105.522446 75.778595,106.391907 
	C76.411003,105.230942 77.230598,103.726341 78.050194,102.221741 
	C78.119789,102.426094 78.189392,102.630447 78.258987,102.834801 
	C80.821838,100.737015 83.366943,98.617035 85.954376,96.550026 
	C87.433884,95.368095 88.982262,94.272377 90.872253,93.193558 
	C86.467293,98.201462 81.953674,103.451355 76.820671,108.002701 
	C73.313049,111.112846 72.008369,106.532959 69.839401,104.594269 
z"/>
<path fill="#E269A1" opacity="1.000000" stroke="none" 
	d="
M41.826012,77.621582 
	C43.705299,78.596245 45.670582,79.900162 47.660595,81.165176 
	C49.281757,82.195709 50.932526,83.179680 52.835564,84.347107 
	C54.315109,86.677963 56.120369,89.521950 57.938755,92.718903 
	C52.608822,88.025932 47.265762,82.979980 41.826012,77.621582 
z"/>
<path fill="#E269A1" opacity="1.000000" stroke="none" 
	d="
M80.652313,17.032568 
	C79.230186,23.059258 75.066849,24.758623 70.310997,21.078770 
	C67.994606,19.286453 66.090401,16.961435 63.984154,14.515696 
	C67.588951,16.563717 71.209206,18.973600 74.986488,21.488016 
	C76.558998,20.193493 78.439690,18.645269 80.652313,17.032568 
z"/>
<path fill="#E269A1" opacity="1.000000" stroke="none" 
	d="
M91.568665,93.155136 
	C92.849846,86.796570 98.183884,84.014801 103.638260,80.993996 
	C99.965408,85.019798 95.926849,89.043800 91.568665,93.155136 
z"/>
<path fill="#E269A1" opacity="1.000000" stroke="none" 
	d="
M113.359985,71.938843 
	C113.155487,67.923393 115.707298,65.983276 119.749390,65.081039 
	C117.973640,67.348946 115.820023,69.579666 113.359985,71.938843 
z"/>
<path fill="#E269A1" opacity="1.000000" stroke="none" 
	d="
M65.117645,100.298294 
	C66.392921,99.816116 67.788849,99.633324 69.634338,99.391663 
	C69.374779,100.564613 69.154671,101.559235 68.818207,102.906036 
	C67.547333,102.371376 66.392807,101.484528 65.117645,100.298294 
z"/>
<path fill="#E269A1" opacity="1.000000" stroke="none" 
	d="
M122.224014,21.355515 
	C120.911926,20.604980 119.535515,19.537811 118.225342,18.099468 
	C119.580963,18.831823 120.870331,19.935349 122.224014,21.355515 
z"/>
<path fill="#E269A1" opacity="1.000000" stroke="none" 
	d="
M109.339973,75.934097 
	C110.132904,74.719460 111.217300,73.371284 112.684677,72.038055 
	C111.922249,73.302185 110.776840,74.551369 109.339973,75.934097 
z"/>
<path fill="#E269A1" opacity="1.000000" stroke="none" 
	d="
M104.297546,80.894531 
	C105.092293,79.670624 106.189262,78.338081 107.665817,77.017525 
	C106.896843,78.281639 105.748306,79.533775 104.297546,80.894531 
z"/>
<path fill="#E269A1" opacity="1.000000" stroke="none" 
	d="
M37.795052,73.606300 
	C38.757919,74.048470 39.785629,74.798698 40.736572,75.921280 
	C39.726501,75.500542 38.793198,74.707443 37.795052,73.606300 
z"/>
<path fill="#E269A1" opacity="1.000000" stroke="none" 
	d="
M62.783226,97.634773 
	C63.430958,97.810577 64.135719,98.297234 64.803230,99.173935 
	C64.124069,99.024536 63.482162,98.485085 62.783226,97.634773 
z"/>
<path fill="#E269A1" opacity="1.000000" stroke="none" 
	d="
M59.746475,94.632584 
	C60.360199,94.755577 61.033970,95.183296 61.732647,95.937561 
	C61.107212,95.821838 60.456867,95.379578 59.746475,94.632584 
z"/>
<path fill="#E269A1" opacity="1.000000" stroke="none" 
	d="
M36.107639,72.286934 
	C36.536537,72.230225 37.092014,72.445961 37.732216,72.963974 
	C37.289368,73.030640 36.761791,72.795006 36.107639,72.286934 
z"/>
<path fill="#E269A1" opacity="1.000000" stroke="none" 
	d="
M58.056183,93.317986 
	C58.490757,93.264488 59.052292,93.480034 59.670067,94.010483 
	C59.211922,94.079262 58.697533,93.833145 58.056183,93.317986 
z"/>
<path fill="#E269A1" opacity="1.000000" stroke="none" 
	d="
M25.737530,21.139465 
	C25.794191,21.572470 25.570213,22.117386 25.053886,22.760456 
	C24.993320,22.322865 25.225105,21.787119 25.737530,21.139465 
z"/>
<path fill="#E269A1" opacity="1.000000" stroke="none" 
	d="
M108.267715,76.966560 
	C108.208481,76.770340 108.399170,76.492905 108.830513,76.122513 
	C108.886658,76.314819 108.702148,76.600082 108.267715,76.966560 
z"/>
<path fill="#E269A1" opacity="1.000000" stroke="none" 
	d="
M40.829475,76.495163 
	C41.067307,76.395737 41.377560,76.548737 41.737595,76.971634 
	C41.492218,77.076881 41.197056,76.912231 40.829475,76.495163 
z"/>
<path fill="#E269A1" opacity="1.000000" stroke="none" 
	d="
M120.335327,65.057762 
	C120.264786,64.845024 120.452408,64.554077 120.893440,64.179222 
	C120.962395,64.390060 120.777939,64.684807 120.335327,65.057762 
z"/>
<path fill="#E269A1" opacity="1.000000" stroke="none" 
	d="
M61.816235,96.495979 
	C62.081264,96.381119 62.389523,96.532806 62.737061,96.955093 
	C62.470718,97.071297 62.165089,96.916916 61.816235,96.495979 
z"/>
<path fill="#E269A1" opacity="1.000000" stroke="none" 
	d="
M68.846298,103.449844 
	C69.085670,103.354683 69.394341,103.517799 69.759674,103.950081 
	C69.516090,104.048866 69.215843,103.878494 68.846298,103.449844 
z"/>
</svg>