<svg version="1.1" id="Layer_1" xmlns="http://www.w3.org/2000/svg" xmlns:xlink="http://www.w3.org/1999/xlink" x="0px" y="0px"
	 width="100%" viewBox="0 0 156 146" enable-background="new 0 0 156 146" xml:space="preserve">
<path fill="#F3F7F8" opacity="1.000000" stroke="none" 
	d="
M88.000000,147.000000 
	C58.666672,147.000000 29.833340,147.000000 1.000008,147.000000 
	C1.000005,98.333344 1.000005,49.666687 1.000003,1.000021 
	C52.999985,1.000014 104.999969,1.000014 156.999969,1.000007 
	C156.999969,49.666645 156.999969,98.333290 156.999985,146.999969 
	C134.166672,147.000000 111.333336,147.000000 88.000000,147.000000 
M88.414040,109.003372 
	C97.593361,100.061455 106.848671,91.195755 115.923782,82.149292 
	C121.449448,76.641083 127.465088,71.395912 131.917801,65.085129 
	C142.788727,49.677864 137.334824,29.213650 120.691162,20.375555 
	C107.791946,13.525831 94.507324,16.112167 81.576607,28.079428 
	C81.108780,27.677038 80.614723,27.275734 80.148026,26.844799 
	C79.536705,26.280329 78.974251,25.660709 78.343895,25.119410 
	C68.569862,16.726269 57.209743,14.117898 45.308464,18.512936 
	C22.766932,26.837322 17.596395,53.558910 34.872280,70.314796 
	C48.371773,83.407959 62.006927,96.361183 75.565102,109.393967 
	C80.988228,114.606941 82.583633,114.646805 88.414040,109.003372 
z"/>
<path fill="#070808" opacity="1.000000" stroke="none" 
	d="
M88.160965,109.267822 
	C82.583633,114.646805 80.988228,114.606941 75.565102,109.393967 
	C62.006927,96.361183 48.371773,83.407959 34.872280,70.314796 
	C17.596395,53.558910 22.766932,26.837322 45.308464,18.512936 
	C57.209743,14.117898 68.569862,16.726269 78.343895,25.119410 
	C78.974251,25.660709 79.536705,26.280329 80.148026,26.844799 
	C80.614723,27.275734 81.108780,27.677038 81.576607,28.079428 
	C94.507324,16.112167 107.791946,13.525831 120.691162,20.375555 
	C137.334824,29.213650 142.788727,49.677864 131.917801,65.085129 
	C127.465088,71.395912 121.449448,76.641083 115.923782,82.149292 
	C106.848671,91.195755 97.593361,100.061455 88.160965,109.267822 
M95.206711,31.522823 
	C90.628899,36.494110 86.051086,41.465393 81.432014,46.481476 
	C78.650970,43.072960 76.124756,39.278088 72.897766,36.223576 
	C69.838387,33.327724 66.366425,30.318157 62.509956,28.923178 
	C53.164425,25.542667 43.736435,29.538055 38.529900,38.131866 
	C33.746952,46.026501 35.142174,54.872391 42.889160,62.456322 
	C55.611805,74.911179 68.549141,87.146736 81.550224,99.622818 
	C82.686653,98.636055 83.724785,97.826591 84.658066,96.910347 
	C96.771423,85.018051 109.156815,73.384117 120.864120,61.103992 
	C127.848686,53.777683 127.885750,42.805180 122.217171,35.935841 
	C115.394852,27.668358 105.511963,25.864288 95.206711,31.522823 
z"/>
<path fill="#FCFCFC" opacity="1.000000" stroke="none" 
	d="
M95.521027,31.321396 
	C105.511963,25.864288 115.394852,27.668358 122.217171,35.935841 
	C127.885750,42.805180 127.848686,53.777683 120.864120,61.103992 
	C109.156815,73.384117 96.771423,85.018051 84.658066,96.910347 
	C83.724785,97.826591 82.686653,98.636055 81.550224,99.622818 
	C68.549141,87.146736 55.611805,74.911179 42.889160,62.456322 
	C35.142174,54.872391 33.746952,46.026501 38.529900,38.131866 
	C43.736435,29.538055 53.164425,25.542667 62.509956,28.923178 
	C66.366425,30.318157 69.838387,33.327724 72.897766,36.223576 
	C76.124756,39.278088 78.650970,43.072960 81.432014,46.481476 
	C86.051086,41.465393 90.628899,36.494110 95.521027,31.321396 
z"/>
</svg>